<svg xmlns="http://www.w3.org/2000/svg" xmlns:svg="http://www.w3.org/2000/svg" id="svg4357" width="108.134" height="63.595" version="1.1" viewBox="0 0 101.376 59.621"><metadata id="metadata4362"/><g id="layer1" transform="translate(741.48987,-20.382376)"><rect style="fill:#000;stroke:none" id="rect20" width="2.816" height="2.816" x="-741.49" y="34.71" pointer-events="none"/><rect style="fill:#000;stroke:none" id="rect22" width="2.816" height="2.816" x="-741.49" y="62.87" pointer-events="none"/><rect style="fill:#000;stroke:none" id="rect24" width="2.816" height="2.816" x="-642.93" y="48.79" pointer-events="none"/><path style="fill:none;stroke:#000;stroke-width:2.81599998;stroke-linecap:square;stroke-miterlimit:10" id="path26" stroke-miterlimit="10" d="m -738.67385,36.118056 19.712,0" pointer-events="none"/><path style="fill:none;stroke:#000;stroke-width:2.81599998;stroke-linecap:square;stroke-miterlimit:10" id="path28" stroke-miterlimit="10" d="m -738.67385,64.278056 19.712,0" pointer-events="none"/><path style="fill:#fff;stroke:#000;stroke-width:2.27919984;stroke-linecap:round;stroke-linejoin:round;stroke-miterlimit:10" id="path30" stroke-miterlimit="10" d="m -710.45225,21.633256 -8.8176,0.009 c 0.009,17.5296 0.0968,35.332 0.1056,57.024 l 8.57119,0.1232 c 14.1944,-0.0352 25.55521,0.968 34.72481,-3.9072 7.94639,-4.224 14.7488,-12.9712 14.7048,-24.4904 -0.0528,-11.8712 -6.71441,-19.58 -15.3736,-24.7896 -8.45681,-5.0952 -19.932,-3.9424 -33.9152,-3.9688 z" pointer-events="none"/><path style="fill:none;stroke:#000;stroke-width:2.81599998;stroke-linecap:square;stroke-miterlimit:10" id="path32" stroke-miterlimit="10" d="m -659.82586,50.198056 16.89601,0" pointer-events="none"/><text style="font-style:normal;font-weight:400;font-size:40px;line-height:125%;font-family:sans-serif;letter-spacing:0;word-spacing:0;fill:#000;fill-opacity:1;stroke:none;stroke-width:1px;stroke-linecap:butt;stroke-linejoin:miter;stroke-opacity:1" id="text5105" x="-707.059" y="55.003" xml:space="preserve"><tspan id="tspan5107" x="-707.059" y="55.003" style="font-style:normal;font-variant:normal;font-weight:400;font-stretch:normal;font-size:15px;font-family:sans-serif;-inkscape-font-specification:sans-serif">AND</tspan></text></g></svg>