<svg xmlns="http://www.w3.org/2000/svg" xmlns:svg="http://www.w3.org/2000/svg" id="svg6090" width="108.134" height="63.595" version="1.1" viewBox="0 0 101.376 59.621"><metadata id="metadata6095"/><g id="layer1" transform="translate(847.83087,223.16234)"><rect style="fill:#000;stroke:none" id="rect68" width="2.816" height="2.816" x="-749.271" y="-194.755" pointer-events="none"/><rect style="fill:#000;stroke:none" id="rect70" width="2.816" height="2.816" x="-847.831" y="-208.835" pointer-events="none"/><rect style="fill:#000;stroke:none" id="rect72" width="2.816" height="2.816" x="-847.831" y="-180.675" pointer-events="none"/><circle style="fill:#fff;stroke:#000;stroke-width:2.81599998" id="ellipse74" cx="-763.703" cy="-193.347" r="3.494" pointer-events="none"/><path style="fill:none;stroke:#000;stroke-width:2.81599998;stroke-linecap:square;stroke-miterlimit:10" id="path76" stroke-miterlimit="10" d="m -759.12685,-193.34666 9.856,0" pointer-events="none"/><path style="fill:none;stroke:#000;stroke-width:2.81599998;stroke-linecap:square;stroke-miterlimit:10" id="path78" stroke-miterlimit="10" d="m -845.01485,-207.42666 19.712,0" pointer-events="none"/><path style="fill:none;stroke:#000;stroke-width:2.81599998;stroke-linecap:square;stroke-miterlimit:10" id="path80" stroke-miterlimit="10" d="m -845.01485,-179.26666 19.712,0" pointer-events="none"/><path style="fill:#fff;stroke:#000;stroke-width:2.27919984;stroke-linecap:round;stroke-linejoin:round;stroke-miterlimit:10" id="path82" stroke-miterlimit="10" d="m -816.79325,-221.91146 -8.8176,0.009 c 0.009,17.5296 0.0968,35.332 0.1056,57.024 l 8.5712,0.1232 c 14.1944,-0.0352 25.5552,0.968 34.7248,-3.9072 7.9464,-4.224 14.7488,-12.9712 14.7048,-24.4904 -0.0528,-11.8712 -6.7144,-19.58 -15.3736,-24.7896 -8.4568,-5.0952 -19.932,-3.9424 -33.9152,-3.9688 z" pointer-events="none"/><text style="font-style:normal;font-weight:400;font-size:40px;line-height:125%;font-family:sans-serif;letter-spacing:0;word-spacing:0;fill:#000;fill-opacity:1;stroke:none;stroke-width:1px;stroke-linecap:butt;stroke-linejoin:miter;stroke-opacity:1" id="text5105" x="-819.607" y="-187.408" xml:space="preserve"><tspan id="tspan5107" x="-819.607" y="-187.408" style="font-style:normal;font-variant:normal;font-weight:400;font-stretch:normal;font-size:15px;font-family:sans-serif;-inkscape-font-specification:sans-serif">NAND</tspan></text></g></svg>