<svg xmlns="http://www.w3.org/2000/svg" xmlns:s="https://github.com/nturley/netlistsvg" xmlns:xlink="http://www.w3.org/1999/xlink" width="422" height="236"><style>svg{stroke:#000;fill:none}text{fill:#000;stroke:none;font-size:10px;font-weight:700;font-family:&quot;Courier New&quot;,monospace}.nodelabel{text-anchor:middle}</style><g transform="translate(229,204)" s:height="20" s:type="inputExt" s:width="30"><text x="15" y="-4" class="nodelabel" s:attribute="ref">clk</text><s:alias val="$_inputExt_"/><path d="M0,0 L0,20 L15,20 L30,10 L15,0 Z"/></g><g transform="translate(12,16)" s:height="20" s:type="inputExt" s:width="30"><text x="15" y="-4" class="nodelabel" s:attribute="ref">addr</text><s:alias val="$_inputExt_"/><path d="M0,0 L0,20 L15,20 L30,10 L15,0 Z"/></g><g transform="translate(66,101)" s:height="20" s:type="inputExt" s:width="30"><text x="15" y="-4" class="nodelabel" s:attribute="ref">write_en</text><s:alias val="$_inputExt_"/><path d="M0,0 L0,20 L15,20 L30,10 L15,0 Z"/></g><g transform="translate(155,180)" s:height="20" s:type="inputExt" s:width="30"><text x="15" y="-4" class="nodelabel" s:attribute="ref">rst</text><s:alias val="$_inputExt_"/><path d="M0,0 L0,20 L15,20 L30,10 L15,0 Z"/></g><g transform="translate(66,42)" s:height="20" s:type="inputExt" s:width="30"><text x="15" y="-4" class="nodelabel" s:attribute="ref">din</text><s:alias val="$_inputExt_"/><path d="M0,0 L0,20 L15,20 L30,10 L15,0 Z"/></g><g transform="translate(368,42)" s:height="20" s:type="outputExt" s:width="30"><text x="15" y="-4" class="nodelabel" s:attribute="ref">dout</text><s:alias val="$_outputExt_"/><path d="M30,0 L30,20 L15,20 L0,10 L15,0 Z"/></g><g transform="translate(303,42)" s:height="40" s:type="dff" s:width="30"><s:alias val="$dff"/><s:alias val="$_DFF_"/><rect width="30" height="40" x="0" y="0"/><path d="M0,35 L5,30 L0,25"/></g><g transform="translate(164.66666666666669,22)" s:height="40" s:type="mux" s:width="20"><s:alias val="$pmux"/><s:alias val="$mux"/><s:alias val="$_MUX_"/><path d="M0,0 L20,10 L20,30 L0,40 Z"/></g><g transform="translate(235.33333333333334,32)" s:height="40" s:type="mux" s:width="20"><s:alias val="$pmux"/><s:alias val="$mux"/><s:alias val="$_MUX_"/><path d="M0,0 L20,10 L20,30 L0,40 Z"/></g><g transform="translate(155,121)" s:height="20" s:type="constant" s:width="30"><text x="15" y="-4" class="nodelabel" s:attribute="ref">0x0</text><s:alias val="$_constant_"/><rect width="30" height="20"/></g><line x1="333" x2="368" y1="52" y2="52"/><line x1="333" x2="343" y1="52" y2="52"/><line x1="343" x2="343" y1="52" y2="12"/><line x1="343" x2="130" y1="12" y2="12"/><line x1="130" x2="130" y1="12" y2="32"/><circle cx="343" cy="52" r="2" style="fill:#000"/><line x1="130" x2="164.667" y1="32" y2="32"/><line x1="257" x2="278" y1="214" y2="214"/><line x1="278" x2="278" y1="214" y2="72"/><line x1="278" x2="303" y1="72" y2="72"/><line x1="255.333" x2="303" y1="52" y2="52"/><line x1="94" x2="164.667" y1="52" y2="52"/><line x1="94" x2="174.667" y1="111" y2="111"/><line x1="174.667" x2="174.667" y1="111" y2="57"/><line x1="184.667" x2="235.333" y1="42" y2="42"/><line x1="185" x2="204" y1="131" y2="131"/><line x1="204" x2="204" y1="131" y2="62"/><line x1="204" x2="235.333" y1="62" y2="62"/><line x1="183" x2="245.333" y1="190" y2="190"/><line x1="245.333" x2="245.333" y1="190" y2="67"/></svg>