<svg xmlns="http://www.w3.org/2000/svg" xmlns:xlink="http://www.w3.org/1999/xlink" width="1676" height="449pt" viewBox="0 0 1256.7 449.27"><g id="graph0" class="graph" transform="scale(1 1) rotate(0) translate(4 445.273)"><title>MEMORY</title><polygon fill="#fff" stroke="none" points="-4 4 -4 -445.273 1252.7 -445.273 1252.7 4 -4 4"/><text x="624.351" y="-7.8" font-family="Times,serif" font-size="14" text-anchor="middle">MEMORY</text><g id="node1" class="node"><title>n2</title><polygon fill="none" stroke="#000" points="77.577 -414.544 77.577 -429.456 54.799 -440 22.585 -440 -.193 -429.456 -.193 -414.544 22.585 -404 54.799 -404 77.577 -414.544"/><text x="38.692" y="-418.3" font-family="Times,serif" font-size="14" text-anchor="middle">ADDR</text></g><g id="node15" class="node"><title>c23</title><polygon fill="none" stroke="#000" points="113.384 -356.5 113.384 -425.5 213.384 -425.5 213.384 -356.5 113.384 -356.5"/><text x="126.384" y="-410.3" font-family="Times,serif" font-size="14" text-anchor="middle">A</text><polyline fill="none" stroke="#000" points="113.384 -402.5 139.384 -402.5"/><text x="126.384" y="-387.3" font-family="Times,serif" font-size="14" text-anchor="middle">B</text><polyline fill="none" stroke="#000" points="113.384 -379.5 139.384 -379.5"/><text x="126.384" y="-364.3" font-family="Times,serif" font-size="14" text-anchor="middle">S</text><polyline fill="none" stroke="#000" points="139.384 -356.5 139.384 -425.5"/><text x="163.384" y="-394.8" font-family="Times,serif" font-size="14" text-anchor="middle">$2</text><text x="163.384" y="-379.8" font-family="Times,serif" font-size="14" text-anchor="middle">$mux</text><polyline fill="none" stroke="#000" points="187.384 -356.5 187.384 -425.5"/><text x="200.384" y="-387.3" font-family="Times,serif" font-size="14" text-anchor="middle">Y</text></g><g id="edge6" class="edge"><title>n2:e-&gt;c23:p18:w</title><path fill="none" stroke="#e7298a" stroke-width="3" d="M77.3842,-422C89.805,-422 94.6619,-417.406 103.419,-415.18"/><polygon fill="#e7298a" stroke="#e7298a" stroke-width="3" points="103.865 -418.652 113.384 -414 103.042 -411.701 103.865 -418.652"/></g><g id="node2" class="node"><title>n3</title><polygon fill="none" stroke="#000" points="294.423 -365 249.345 -347 294.423 -329 339.5 -347 294.423 -365"/><text x="294.423" y="-343.3" font-family="Times,serif" font-size="14" text-anchor="middle">AR_d</text></g><g id="node14" class="node"><title>c22</title><polygon fill="none" stroke="#000" points="375.462 -289.5 375.462 -358.5 475.462 -358.5 475.462 -289.5 375.462 -289.5"/><text x="388.462" y="-343.3" font-family="Times,serif" font-size="14" text-anchor="middle">A</text><polyline fill="none" stroke="#000" points="375.462 -335.5 401.462 -335.5"/><text x="388.462" y="-320.3" font-family="Times,serif" font-size="14" text-anchor="middle">B</text><polyline fill="none" stroke="#000" points="375.462 -312.5 401.462 -312.5"/><text x="388.462" y="-297.3" font-family="Times,serif" font-size="14" text-anchor="middle">S</text><polyline fill="none" stroke="#000" points="401.462 -289.5 401.462 -358.5"/><text x="425.462" y="-327.8" font-family="Times,serif" font-size="14" text-anchor="middle">$199</text><text x="425.462" y="-312.8" font-family="Times,serif" font-size="14" text-anchor="middle">$mux</text><polyline fill="none" stroke="#000" points="449.462 -289.5 449.462 -358.5"/><text x="462.462" y="-320.3" font-family="Times,serif" font-size="14" text-anchor="middle">Y</text></g><g id="edge8" class="edge"><title>n3:e-&gt;c22:p19:w</title><path fill="none" stroke="#7570b3" stroke-width="3" d="M339.462,-347C354.295,-347 356.335,-332.962 365.572,-326.82"/><polygon fill="#7570b3" stroke="#7570b3" stroke-width="3" points="366.805 -330.108 375.462 -324 364.885 -323.377 366.805 -330.108"/></g><g id="node3" class="node"><title>n4</title><polygon fill="none" stroke="#000" points="706.5 -298 661.423 -280 706.5 -262 751.578 -280 706.5 -298"/><text x="706.5" y="-276.3" font-family="Times,serif" font-size="14" text-anchor="middle">AR_q</text></g><g id="edge10" class="edge"><title>n4:e-&gt;c22:p18:w</title><path fill="none" stroke="#d95f02" stroke-width="3" d="M752.5,-280C760.513,-280 756.689,-291.895 751.5,-298 670.136,-393.74 600.363,-345.364 475.462,-359 431.28,-363.824 408.167,-389.094 375.462,-359 374.846,-358.434 374.268,-357.752 373.751,-357.003"/><polygon fill="#d95f02" stroke="#d95f02" stroke-width="3" points="377.244 -357.223 374.462 -347 370.262 -356.727 377.244 -357.223"/></g><g id="node16" class="node"><title>c28</title><polygon fill="none" stroke="#000" points="787.539 -90 787.539 -228 1139.54 -228 1139.54 -90 787.539 -90"/><text x="819.539" y="-212.8" font-family="Times,serif" font-size="14" text-anchor="middle">addr</text><polyline fill="none" stroke="#000" points="787.539 -205 851.539 -205"/><text x="819.539" y="-189.8" font-family="Times,serif" font-size="14" text-anchor="middle">clk</text><polyline fill="none" stroke="#000" points="787.539 -182 851.539 -182"/><text x="819.539" y="-166.8" font-family="Times,serif" font-size="14" text-anchor="middle">din</text><polyline fill="none" stroke="#000" points="787.539 -159 851.539 -159"/><text x="819.539" y="-143.8" font-family="Times,serif" font-size="14" text-anchor="middle">mmio</text><polyline fill="none" stroke="#000" points="787.539 -136 851.539 -136"/><text x="819.539" y="-120.8" font-family="Times,serif" font-size="14" text-anchor="middle">rst</text><polyline fill="none" stroke="#000" points="787.539 -113 851.539 -113"/><text x="819.539" y="-97.8" font-family="Times,serif" font-size="14" text-anchor="middle">write_en</text><polyline fill="none" stroke="#000" points="851.539 -90 851.539 -228"/><text x="969.539" y="-162.8" font-family="Times,serif" font-size="14" text-anchor="middle">mem_wrapper0</text><text x="969.539" y="-147.8" font-family="Times,serif" font-size="14" text-anchor="middle">$paramod\mem_wrapper\ROMFILE=0&apos;</text><polyline fill="none" stroke="#000" points="1087.54 -90 1087.54 -228"/><text x="1113.54" y="-189.8" font-family="Times,serif" font-size="14" text-anchor="middle">dout</text><polyline fill="none" stroke="#000" points="1087.54 -159 1139.54 -159"/><text x="1113.54" y="-120.8" font-family="Times,serif" font-size="14" text-anchor="middle">o_leds</text></g><g id="edge11" class="edge"><title>n4:e-&gt;c28:p24:w</title><path fill="none" stroke="#d95f02" stroke-width="3" d="M751.539,-280C779.505,-280 761.788,-232.623 777.62,-220.039"/><polygon fill="#d95f02" stroke="#d95f02" stroke-width="3" points="779.003 -223.276 787.539 -217 776.952 -216.583 779.003 -223.276"/></g><g id="node4" class="node"><title>n5</title><polygon fill="none" stroke="#000" points="1239.12 -285.544 1239.12 -300.456 1223.3 -311 1200.94 -311 1185.12 -300.456 1185.12 -285.544 1200.94 -275 1223.3 -275 1239.12 -285.544"/><text x="1212.12" y="-289.3" font-family="Times,serif" font-size="14" text-anchor="middle">M</text></g><g id="edge13" class="edge"><title>n5:e-&gt;c23:p19:w</title><path fill="none" stroke="#1b9e77" stroke-width="3" d="M1240.12,-293C1248.13,-293 1244.5,-305.065 1239.12,-311 1078.51,-488.088 946.57,-393 707.5,-393 424.462,-393 424.462,-393 424.462,-393 329.51,-393 308.051,-418.645 213.384,-426 169.073,-429.443 145.257,-456.975 113.384,-426 105.45,-418.289 100.426,-403.852 103.777,-396.15"/><polygon fill="#1b9e77" stroke="#1b9e77" stroke-width="3" points="105.6 -399.138 112.384 -391 102.006 -393.131 105.6 -399.138"/></g><g id="node5" class="node"><title>n6</title><polygon fill="none" stroke="#000" points="65.692 -198.544 65.692 -213.456 49.876 -224 27.508 -224 11.692 -213.456 11.692 -198.544 27.508 -188 49.876 -188 65.692 -198.544"/><text x="38.692" y="-202.3" font-family="Times,serif" font-size="14" text-anchor="middle">R</text></g><g id="edge14" class="edge"><title>n6:e-&gt;c28:p25:w</title><path fill="none" stroke="#1b9e77" stroke-width="3" d="M66.6921,-206C167.744,-206 192.371,-223 293.423,-223 293.423,-223 293.423,-223 569.462,-223 651.085,-223 676.234,-230.488 751.539,-199 766.441,-192.769 767.582,-178.688 777.687,-173.225"/><polygon fill="#1b9e77" stroke="#1b9e77" stroke-width="3" points="778.556 -176.617 787.539 -171 777.014 -169.789 778.556 -176.617"/></g><g id="node6" class="node"><title>n7</title><polygon fill="none" stroke="#000" points="65.692 -252.544 65.692 -267.456 49.876 -278 27.508 -278 11.692 -267.456 11.692 -252.544 27.508 -242 49.876 -242 65.692 -252.544"/><text x="38.692" y="-256.3" font-family="Times,serif" font-size="14" text-anchor="middle">clk</text></g><g id="node13" class="node"><title>c17</title><polygon fill="none" stroke="#000" points="511.462 -257 511.462 -303 625.462 -303 625.462 -257 511.462 -257"/><text x="533.462" y="-287.8" font-family="Times,serif" font-size="14" text-anchor="middle">CLK</text><polyline fill="none" stroke="#000" points="511.462 -280 555.462 -280"/><text x="533.462" y="-264.8" font-family="Times,serif" font-size="14" text-anchor="middle">D</text><polyline fill="none" stroke="#000" points="555.462 -257 555.462 -303"/><text x="577.462" y="-283.8" font-family="Times,serif" font-size="14" text-anchor="middle">$218</text><text x="577.462" y="-268.8" font-family="Times,serif" font-size="14" text-anchor="middle">$dff</text><polyline fill="none" stroke="#000" points="599.462 -257 599.462 -303"/><text x="612.462" y="-276.3" font-family="Times,serif" font-size="14" text-anchor="middle">Q</text></g><g id="edge15" class="edge"><title>n7:e-&gt;c17:p14:w</title><path fill="none" stroke="#e6ab02" d="M66.6921,-260C248.585,-260 296.683,-246.484 475.462,-280 488.024,-282.355 492.535,-288.032 501.323,-290.644"/><polygon fill="#e6ab02" stroke="#e6ab02" points="501.086 -294.143 511.462 -292 502.014 -287.205 501.086 -294.143"/></g><g id="edge16" class="edge"><title>n7:e-&gt;c28:p7:w</title><path fill="none" stroke="#e6ab02" d="M66.6921,-260C119.762,-260 240.353,-185 293.423,-185 293.423,-185 293.423,-185 569.462,-185 662.962,-185 688.699,-193.361 777.303,-193.966"/><polygon fill="#e6ab02" stroke="#e6ab02" points="777.527 -197.466 787.539 -194 777.551 -190.466 777.527 -197.466"/></g><g id="node7" class="node"><title>n8</title><polygon fill="none" stroke="#000" points="74.042 -141.544 74.042 -156.456 53.335 -167 24.05 -167 3.342 -156.456 3.342 -141.544 24.05 -131 53.335 -131 74.042 -141.544"/><text x="38.692" y="-145.3" font-family="Times,serif" font-size="14" text-anchor="middle">mmio</text></g><g id="edge17" class="edge"><title>n8:e-&gt;c28:p8:w</title><path fill="none" stroke="#e6ab02" d="M75.6921,-149C172.465,-149 196.65,-147 293.423,-147 293.423,-147 293.423,-147 569.462,-147 662.883,-147 688.77,-147 777.311,-147"/><polygon fill="#e6ab02" stroke="#e6ab02" points="777.539 -150.5 787.539 -147 777.539 -143.5 777.539 -150.5"/></g><g id="node8" class="node"><title>n9</title><polygon fill="none" stroke="#000" points="1248.78 -116.544 1248.78 -131.456 1227.31 -142 1196.93 -142 1175.46 -131.456 1175.46 -116.544 1196.93 -106 1227.31 -106 1248.78 -116.544"/><text x="1212.12" y="-120.3" font-family="Times,serif" font-size="14" text-anchor="middle">o_leds</text></g><g id="node9" class="node"><title>n10</title><polygon fill="none" stroke="#000" points="65.692 -87.544 65.692 -102.456 49.876 -113 27.508 -113 11.692 -102.456 11.692 -87.544 27.508 -77 49.876 -77 65.692 -87.544"/><text x="38.692" y="-91.3" font-family="Times,serif" font-size="14" text-anchor="middle">rst</text></g><g id="edge2" class="edge"><title>n10:e-&gt;c28:p10:w</title><path fill="none" stroke="#1b9e77" d="M66.6921,-95C167.461,-95 192.654,-95 293.423,-95 293.423,-95 293.423,-95 569.462,-95 663.801,-95 688.086,-121.997 777.499,-123.895"/><polygon fill="#1b9e77" stroke="#1b9e77" points="777.503 -127.395 787.539 -124 777.576 -120.396 777.503 -127.395"/></g><g id="node10" class="node"><title>n11</title><polygon fill="none" stroke="#000" points="68.285 -360.544 68.285 -375.456 50.95 -386 26.434 -386 9.099 -375.456 9.099 -360.544 26.434 -350 50.95 -350 68.285 -360.544"/><text x="38.692" y="-364.3" font-family="Times,serif" font-size="14" text-anchor="middle">srcA</text></g><g id="edge3" class="edge"><title>n11:e-&gt;c23:p20:w</title><path fill="none" stroke="#1b9e77" d="M69.6921,-368C85.1664,-368 91.3923,-368 103.11,-368"/><polygon fill="#1b9e77" stroke="#1b9e77" points="103.384 -371.5 113.384 -368 103.384 -364.5 103.384 -371.5"/></g><g id="node11" class="node"><title>n12</title><polygon fill="none" stroke="#000" points="70.507 -306.544 70.507 -321.456 51.87 -332 25.514 -332 6.877 -321.456 6.877 -306.544 25.514 -296 51.87 -296 70.507 -306.544"/><text x="38.692" y="-310.3" font-family="Times,serif" font-size="14" text-anchor="middle">wAR</text></g><g id="edge4" class="edge"><title>n12:e-&gt;c22:p20:w</title><path fill="none" stroke="#7570b3" d="M71.6921,-314C203.393,-314 238.562,-301.652 365.362,-301.025"/><polygon fill="#7570b3" stroke="#7570b3" points="365.47 -304.525 375.462 -301 365.453 -297.525 365.47 -304.525"/></g><g id="node12" class="node"><title>n13</title><polygon fill="none" stroke="#000" points="66.065 -33.544 66.065 -48.456 50.03 -59 27.354 -59 11.319 -48.456 11.319 -33.544 27.354 -23 50.03 -23 66.065 -33.544"/><text x="38.692" y="-37.3" font-family="Times,serif" font-size="14" text-anchor="middle">wM</text></g><g id="edge5" class="edge"><title>n13:e-&gt;c28:p26:w</title><path fill="none" stroke="#e7298a" d="M66.6921,-41C167.461,-41 192.654,-41 293.423,-41 293.423,-41 293.423,-41 569.462,-41 666.55,-41 685.753,-96.9685 777.517,-100.795"/><polygon fill="#e7298a" stroke="#e7298a" points="777.469 -104.294 787.539 -101 777.613 -97.296 777.469 -104.294"/></g><g id="edge9" class="edge"><title>c17:p16:e-&gt;n4:w</title><path fill="none" stroke="#d95f02" stroke-width="3" d="M625.462,-280C637.462,-280 642.712,-280 651.337,-280"/><polygon fill="#d95f02" stroke="#d95f02" stroke-width="3" points="651.462 -283.5 661.462 -280 651.462 -276.5 651.462 -283.5"/></g><g id="edge1" class="edge"><title>c22:p21:e-&gt;c17:p15:w</title><path fill="none" stroke="#66a61e" stroke-width="3" d="M475.462,-324C500.889,-324 487.348,-282.643 501.816,-271.011"/><polygon fill="#66a61e" stroke="#66a61e" stroke-width="3" points="502.959 -274.321 511.462 -268 500.873 -267.639 502.959 -274.321"/></g><g id="edge7" class="edge"><title>c23:p21:e-&gt;n3:w</title><path fill="none" stroke="#7570b3" stroke-width="3" d="M213.384,-391C234.506,-391 227.815,-360.253 239.81,-350.164"/><polygon fill="#7570b3" stroke="#7570b3" stroke-width="3" points="240.988 -353.462 249.384 -347 238.791 -346.815 240.988 -353.462"/></g><g id="edge12" class="edge"><title>c28:p27:e-&gt;n5:w</title><path fill="none" stroke="#1b9e77" stroke-width="3" d="M1139.54,-194C1183.84,-194 1143.71,-277.424 1174.16,-291.111"/><polygon fill="#1b9e77" stroke="#1b9e77" stroke-width="3" points="1173.64 -294.576 1184.12 -293 1174.95 -287.698 1173.64 -294.576"/></g><g id="edge18" class="edge"><title>c28:p9:e-&gt;n9:w</title><path fill="none" stroke="#d95f02" stroke-width="3" d="M1139.54,-124C1151.54,-124 1156.79,-124 1165.41,-124"/><polygon fill="#d95f02" stroke="#d95f02" stroke-width="3" points="1165.54 -127.5 1175.54 -124 1165.54 -120.5 1165.54 -127.5"/></g></g></svg>