<svg xmlns="http://www.w3.org/2000/svg" xmlns:s="https://github.com/nturley/netlistsvg" xmlns:xlink="http://www.w3.org/1999/xlink" width="416" height="439"><style>svg{stroke:#000;fill:none}text{fill:#000;stroke:none;font-size:10px;font-weight:700;font-family:&quot;Courier New&quot;,monospace}.nodelabel{text-anchor:middle}.inputPortLabel{text-anchor:end}</style><g id="cell_$procdff$163" transform="translate(358,32)" s:height="40" s:type="dff" s:width="30"><s:alias val="$dff"/><s:alias val="$_DFF_"/><rect width="30" height="40" x="0" y="0" class="cell_$procdff$163"/><path d="M0,35 L5,30 L0,25" class="cell_$procdff$163"/></g><g id="cell_$procmux$151" transform="translate(303,22)" s:height="40" s:type="mux" s:width="20"><s:alias val="$pmux"/><s:alias val="$mux"/><s:alias val="$_MUX_"/><path d="M0,0 L20,10 L20,30 L0,40 Z" class="cell_$procmux$151"/></g><g id="cell_$ternary$MEMORY.v:21$2" transform="translate(241.33333333333334,32)" s:height="40" s:type="mux" s:width="20"><s:alias val="$pmux"/><s:alias val="$mux"/><s:alias val="$_MUX_"/><path d="M0,0 L20,10 L20,30 L0,40 Z" class="cell_$ternary$MEMORY.v:21$2"/></g><g id="cell_mem_wrapper0" transform="translate(131,216.5)" s:height="40" s:type="generic" s:width="30"><text x="15" y="-4" class="nodelabel cell_mem_wrapper0" s:attribute="ref">$paramod\mem_wrapper\ROMFILE=0&apos;</text><rect width="30" height="120" class="cell_mem_wrapper0" s:generic="body"/><g id="port_mem_wrapper0~addr" s:pid="in0" s:x="0" s:y="10"><text x="-3" y="-4" class="inputPortLabel cell_mem_wrapper0" transform="translate(0,10)">addr</text></g><g id="port_mem_wrapper0~clk" s:pid="in0" s:x="0" s:y="10"><text x="-3" y="-4" class="inputPortLabel cell_mem_wrapper0" transform="translate(0,30)">clk</text></g><g id="port_mem_wrapper0~din" s:pid="in0" s:x="0" s:y="10"><text x="-3" y="-4" class="inputPortLabel cell_mem_wrapper0" transform="translate(0,50)">din</text></g><g id="port_mem_wrapper0~mmio" s:pid="in0" s:x="0" s:y="10"><text x="-3" y="-4" class="inputPortLabel cell_mem_wrapper0" transform="translate(0,70)">mmio</text></g><g id="port_mem_wrapper0~rst" s:pid="in0" s:x="0" s:y="10"><text x="-3" y="-4" class="inputPortLabel cell_mem_wrapper0" transform="translate(0,90)">rst</text></g><g id="port_mem_wrapper0~write_en" s:pid="in0" s:x="0" s:y="10"><text x="-3" y="-4" class="inputPortLabel cell_mem_wrapper0" transform="translate(0,110)">write_en</text></g><g id="port_mem_wrapper0~dout" s:pid="out0" s:x="30" s:y="10"><text x="5" y="-4" class="cell_mem_wrapper0" transform="translate(30,10)" style="fill:#000;stroke:none">dout</text></g><g id="port_mem_wrapper0~o_leds" s:pid="out0" s:x="30" s:y="10"><text x="5" y="-4" class="cell_mem_wrapper0" transform="translate(30,30)" style="fill:#000;stroke:none">o_leds</text></g></g><g id="cell_ADDR" transform="translate(131,32)" s:height="20" s:type="inputExt" s:width="30"><text x="15" y="-4" class="nodelabel cell_ADDR" s:attribute="ref">ADDR</text><s:alias val="$_inputExt_"/><path d="M0,0 L0,20 L15,20 L30,10 L15,0 Z" class="cell_ADDR"/></g><g id="cell_clk" transform="translate(12,147)" s:height="20" s:type="inputExt" s:width="30"><text x="15" y="-4" class="nodelabel cell_clk" s:attribute="ref">clk</text><s:alias val="$_inputExt_"/><path d="M0,0 L0,20 L15,20 L30,10 L15,0 Z" class="cell_clk"/></g><g id="cell_R" transform="translate(12,212)" s:height="20" s:type="inputExt" s:width="30"><text x="15" y="-4" class="nodelabel cell_R" s:attribute="ref">R</text><s:alias val="$_inputExt_"/><path d="M0,0 L0,20 L15,20 L30,10 L15,0 Z" class="cell_R"/></g><g id="cell_srcA" transform="translate(131,97)" s:height="20" s:type="inputExt" s:width="30"><text x="15" y="-4" class="nodelabel cell_srcA" s:attribute="ref">srcA</text><s:alias val="$_inputExt_"/><path d="M0,0 L0,20 L15,20 L30,10 L15,0 Z" class="cell_srcA"/></g><g id="cell_wM" transform="translate(12,407)" s:height="20" s:type="inputExt" s:width="30"><text x="15" y="-4" class="nodelabel cell_wM" s:attribute="ref">wM</text><s:alias val="$_inputExt_"/><path d="M0,0 L0,20 L15,20 L30,10 L15,0 Z" class="cell_wM"/></g><g id="cell_wAR" transform="translate(238,127)" s:height="20" s:type="inputExt" s:width="30"><text x="15" y="-4" class="nodelabel cell_wAR" s:attribute="ref">wAR</text><s:alias val="$_inputExt_"/><path d="M0,0 L0,20 L15,20 L30,10 L15,0 Z" class="cell_wAR"/></g><g id="cell_mmio" transform="translate(12,277)" s:height="20" s:type="inputExt" s:width="30"><text x="15" y="-4" class="nodelabel cell_mmio" s:attribute="ref">mmio</text><s:alias val="$_inputExt_"/><path d="M0,0 L0,20 L15,20 L30,10 L15,0 Z" class="cell_mmio"/></g><g id="cell_rst" transform="translate(12,342)" s:height="20" s:type="inputExt" s:width="30"><text x="15" y="-4" class="nodelabel cell_rst" s:attribute="ref">rst</text><s:alias val="$_inputExt_"/><path d="M0,0 L0,20 L15,20 L30,10 L15,0 Z" class="cell_rst"/></g><g id="cell_M" transform="translate(358,217)" s:height="20" s:type="outputExt" s:width="30"><text x="15" y="-4" class="nodelabel cell_M" s:attribute="ref">M</text><s:alias val="$_outputExt_"/><path d="M30,0 L30,20 L15,20 L0,10 L15,0 Z" class="cell_M"/></g><g id="cell_o_leds" transform="translate(358,282)" s:height="20" s:type="outputExt" s:width="30"><text x="15" y="-4" class="nodelabel cell_o_leds" s:attribute="ref">o_leds</text><s:alias val="$_outputExt_"/><path d="M30,0 L30,20 L15,20 L0,10 L15,0 Z" class="cell_o_leds"/></g><line x1="40" x2="333" y1="157" y2="157" class="net_10"/><line x1="333" x2="333" y1="157" y2="62" class="net_10"/><line x1="333" x2="358" y1="62" y2="62" class="net_10"/><line x1="40" x2="62" y1="157" y2="157" class="net_10"/><line x1="62" x2="62" y1="157" y2="247" class="net_10"/><circle cx="62" cy="157" r="2" class="net_10" style="fill:#000"/><line x1="62" x2="131" y1="247" y2="247" class="net_10"/><line x1="323" x2="358" y1="42" y2="42" class="net_40,41,42,43,44,45,46,47"/><line x1="388" x2="404" y1="42" y2="42" class="net_48,49,50,51,52,53,54,55"/><line x1="404" x2="404" y1="42" y2="12" class="net_48,49,50,51,52,53,54,55"/><line x1="404" x2="278" y1="12" y2="12" class="net_48,49,50,51,52,53,54,55"/><line x1="278" x2="278" y1="12" y2="32" class="net_48,49,50,51,52,53,54,55"/><circle cx="404" cy="42" r="2" class="net_48,49,50,51,52,53,54,55" style="fill:#000"/><line x1="278" x2="303" y1="32" y2="32" class="net_48,49,50,51,52,53,54,55"/><line x1="388" x2="404" y1="42" y2="42" class="net_48,49,50,51,52,53,54,55"/><line x1="404" x2="404" y1="42" y2="168" class="net_48,49,50,51,52,53,54,55"/><line x1="404" x2="72" y1="168" y2="168" class="net_48,49,50,51,52,53,54,55"/><line x1="72" x2="72" y1="168" y2="227" class="net_48,49,50,51,52,53,54,55"/><line x1="72" x2="131" y1="227" y2="227" class="net_48,49,50,51,52,53,54,55"/><line x1="261.333" x2="303" y1="52" y2="52" class="net_56,57,58,59,60,61,62,63"/><line x1="266" x2="313" y1="137" y2="137" class="net_21"/><line x1="313" x2="313" y1="137" y2="57" class="net_21"/><line x1="159" x2="241.333" y1="42" y2="42" class="net_2,3,4,5,6,7,8,9"/><line x1="162" x2="213" y1="227" y2="227" class="net_24,25,26,27,28,29,30,31"/><line x1="213" x2="213" y1="227" y2="62" class="net_24,25,26,27,28,29,30,31"/><circle cx="213" cy="227" r="2" class="net_24,25,26,27,28,29,30,31" style="fill:#000"/><line x1="213" x2="241.333" y1="62" y2="62" class="net_24,25,26,27,28,29,30,31"/><line x1="162" x2="358" y1="227" y2="227" class="net_24,25,26,27,28,29,30,31"/><line x1="159" x2="251.333" y1="107" y2="107" class="net_19"/><line x1="251.333" x2="251.333" y1="107" y2="67" class="net_19"/><line x1="40" x2="52" y1="222" y2="222" class="net_11,12,13,14,15,16,17,18"/><line x1="52" x2="52" y1="222" y2="267" class="net_11,12,13,14,15,16,17,18"/><line x1="52" x2="131" y1="267" y2="267" class="net_11,12,13,14,15,16,17,18"/><line x1="40" x2="131" y1="287" y2="287" class="net_22"/><line x1="40" x2="52" y1="352" y2="352" class="net_23"/><line x1="52" x2="52" y1="352" y2="307" class="net_23"/><line x1="52" x2="131" y1="307" y2="307" class="net_23"/><line x1="40" x2="62" y1="417" y2="417" class="net_20"/><line x1="62" x2="62" y1="417" y2="327" class="net_20"/><line x1="62" x2="131" y1="327" y2="327" class="net_20"/><line x1="162" x2="213" y1="247" y2="247" class="net_32,33,34,35,36,37,38,39"/><line x1="213" x2="213" y1="247" y2="292" class="net_32,33,34,35,36,37,38,39"/><line x1="213" x2="358" y1="292" y2="292" class="net_32,33,34,35,36,37,38,39"/></svg>