<svg xmlns="http://www.w3.org/2000/svg" xmlns:s="https://github.com/nturley/netlistsvg" xmlns:xlink="http://www.w3.org/1999/xlink" width="602" height="280.5"><style>svg{stroke:#000;fill:none}text{fill:#000;stroke:none;font-size:10px;font-weight:700;font-family:&quot;Courier New&quot;,monospace}.nodelabel{text-anchor:middle}</style><g transform="translate(415,237.5)" s:height="20" s:type="inputExt" s:width="30"><text x="15" y="-4" class="nodelabel" s:attribute="ref">clk</text><s:alias val="$_inputExt_"/><path d="M0,0 L0,20 L15,20 L30,10 L15,0 Z"/></g><g transform="translate(341,213.5)" s:height="20" s:type="inputExt" s:width="30"><text x="15" y="-4" class="nodelabel" s:attribute="ref">rst</text><s:alias val="$_inputExt_"/><path d="M0,0 L0,20 L15,20 L30,10 L15,0 Z"/></g><g transform="translate(181,108)" s:height="20" s:type="inputExt" s:width="30"><text x="15" y="-4" class="nodelabel" s:attribute="ref">jmpAddr</text><s:alias val="$_inputExt_"/><path d="M0,0 L0,20 L15,20 L30,10 L15,0 Z"/></g><g transform="translate(98,115.5)" s:height="20" s:type="inputExt" s:width="30"><text x="15" y="-4" class="nodelabel" s:attribute="ref">branch</text><s:alias val="$_inputExt_"/><path d="M0,0 L0,20 L15,20 L30,10 L15,0 Z"/></g><g transform="translate(12,121.5)" s:height="20" s:type="inputExt" s:width="30"><text x="15" y="-4" class="nodelabel" s:attribute="ref">ijump</text><s:alias val="$_inputExt_"/><path d="M0,0 L0,20 L15,20 L30,10 L15,0 Z"/></g><g transform="translate(12,180.5)" s:height="20" s:type="inputExt" s:width="30"><text x="15" y="-4" class="nodelabel" s:attribute="ref">aluFlag</text><s:alias val="$_inputExt_"/><path d="M0,0 L0,20 L15,20 L30,10 L15,0 Z"/></g><g transform="translate(267,189.5)" s:height="20" s:type="inputExt" s:width="30"><text x="15" y="-4" class="nodelabel" s:attribute="ref">wPC</text><s:alias val="$_inputExt_"/><path d="M0,0 L0,20 L15,20 L30,10 L15,0 Z"/></g><g transform="translate(554,217.5)" s:height="20" s:type="outputExt" s:width="30"><text x="15" y="-4" class="nodelabel" s:attribute="ref">PC</text><s:alias val="$_outputExt_"/><path d="M30,0 L30,20 L15,20 L0,10 L15,0 Z"/></g><g transform="translate(191.33333333333334,44)" s:height="25" s:type="add" s:width="25"><s:alias val="$add"/><circle cx="12.5" cy="12.5" r="12.5"/><line x1="7.5" x2="17.5" y1="12.5" y2="12.5"/><line x1="12.5" x2="12.5" y1="7.5" y2="17.5"/></g><g transform="translate(188,163)" s:height="25" s:type="and" s:width="30"><s:alias val="$and"/><s:alias val="$logic_and"/><s:alias val="$_AND_"/><path d="M0,0 L0,25 L15,25 A15 12.5 0 0 0 15,0 Z"/></g><g transform="translate(104,170.5)" s:height="25" s:type="or" s:width="30"><s:alias val="$or"/><s:alias val="$logic_or"/><s:alias val="$_OR_"/><path d="M0,25 L0,25 L15,25 A15 12.5 0 0 0 15,0 L0,0"/><path d="M0,0 A30 25 0 0 1 0,25"/></g><g transform="translate(489,217.5)" s:height="40" s:type="dff" s:width="30"><s:alias val="$dff"/><s:alias val="$_DFF_"/><rect width="30" height="40" x="0" y="0"/><path d="M0,35 L5,30 L0,25"/></g><g transform="translate(421.3333333333333,88)" s:height="40" s:type="mux" s:width="20"><s:alias val="$pmux"/><s:alias val="$mux"/><s:alias val="$_MUX_"/><path d="M0,0 L20,10 L20,30 L0,40 Z"/></g><g transform="translate(273.3333333333333,88)" s:height="40" s:type="mux" s:width="20"><s:alias val="$pmux"/><s:alias val="$mux"/><s:alias val="$_MUX_"/><path d="M0,0 L20,10 L20,30 L0,40 Z"/></g><g transform="translate(350.6666666666667,78)" s:height="40" s:type="mux" s:width="20"><s:alias val="$pmux"/><s:alias val="$mux"/><s:alias val="$_MUX_"/><path d="M0,0 L20,10 L20,30 L0,40 Z"/></g><g transform="translate(98,54)" s:height="20" s:type="constant" s:width="30"><text x="15" y="-4" class="nodelabel" s:attribute="ref">1</text><s:alias val="$_constant_"/><rect width="30" height="20"/></g><g transform="translate(341,23)" s:height="20" s:type="constant" s:width="30"><text x="15" y="-4" class="nodelabel" s:attribute="ref">0x0</text><s:alias val="$_constant_"/><rect width="30" height="20"/></g><line x1="519" x2="554" y1="227.5" y2="227.5"/><line x1="519" x2="529" y1="227.5" y2="227.5"/><line x1="529" x2="529" y1="227.5" y2="12"/><line x1="529" x2="156" y1="12" y2="12"/><line x1="156" x2="156" y1="12" y2="49"/><circle cx="529" cy="227.5" r="2" style="fill:#000"/><line x1="156" x2="194.333" y1="49" y2="49"/><line x1="519" x2="529" y1="227.5" y2="227.5"/><line x1="529" x2="529" y1="227.5" y2="267.5"/><line x1="529" x2="316" y1="267.5" y2="267.5"/><line x1="316" x2="316" y1="267.5" y2="88"/><line x1="316" x2="350.667" y1="88" y2="88"/><line x1="128" x2="194.333" y1="64" y2="64"/><line x1="126" x2="156" y1="125.5" y2="125.5"/><line x1="156" x2="156" y1="125.5" y2="168"/><line x1="156" x2="188" y1="168" y2="168"/><line x1="134" x2="188" y1="183" y2="183"/><line x1="40" x2="73" y1="131.5" y2="131.5"/><line x1="73" x2="73" y1="131.5" y2="175.5"/><line x1="73" x2="107" y1="175.5" y2="175.5"/><line x1="40" x2="107" y1="190.5" y2="190.5"/><line x1="443" x2="489" y1="247.5" y2="247.5"/><line x1="441.333" x2="464" y1="108" y2="108"/><line x1="464" x2="464" y1="108" y2="227.5"/><line x1="464" x2="489" y1="227.5" y2="227.5"/><line x1="370.667" x2="421.333" y1="98" y2="98"/><line x1="371" x2="390" y1="33" y2="33"/><line x1="390" x2="390" y1="33" y2="118"/><line x1="390" x2="421.333" y1="118" y2="118"/><line x1="369" x2="431.333" y1="223.5" y2="223.5"/><line x1="431.333" x2="431.333" y1="223.5" y2="123"/><line x1="216.333" x2="242" y1="56.5" y2="56.5"/><line x1="242" x2="242" y1="56.5" y2="98"/><line x1="242" x2="273.333" y1="98" y2="98"/><line x1="209" x2="273.333" y1="118" y2="118"/><line x1="218" x2="283.333" y1="175.5" y2="175.5"/><line x1="283.333" x2="283.333" y1="175.5" y2="123"/><line x1="293.333" x2="350.667" y1="108" y2="108"/><line x1="295" x2="360.667" y1="199.5" y2="199.5"/><line x1="360.667" x2="360.667" y1="199.5" y2="113"/></svg>