<svg xmlns="http://www.w3.org/2000/svg" xmlns:s="https://github.com/nturley/netlistsvg" xmlns:xlink="http://www.w3.org/1999/xlink" width="300" height="197.5"><style>svg{stroke:#000;fill:none}text{fill:#000;stroke:none;font-size:10px;font-weight:700;font-family:&quot;Courier New&quot;,monospace}.nodelabel{text-anchor:middle}.inputPortLabel{text-anchor:end}</style><g transform="translate(12,16.5)" s:height="20" s:type="inputExt" s:width="30"><text x="15" y="-4" class="nodelabel" s:attribute="ref">Addr</text><s:alias val="$_inputExt_"/><path d="M0,0 L0,20 L15,20 L30,10 L15,0 Z"/></g><g transform="translate(12,75.5)" s:height="20" s:type="inputExt" s:width="30"><text x="15" y="-4" class="nodelabel" s:attribute="ref">clk</text><s:alias val="$_inputExt_"/><path d="M0,0 L0,20 L15,20 L30,10 L15,0 Z"/></g><g transform="translate(246,16.5)" s:height="20" s:type="outputExt" s:width="30"><text x="15" y="-4" class="nodelabel" s:attribute="ref">Data</text><s:alias val="$_outputExt_"/><path d="M30,0 L30,20 L15,20 L0,10 L15,0 Z"/></g><g transform="translate(137,16)" s:height="40" s:type="generic" s:width="30"><text x="15" y="-4" class="nodelabel" s:attribute="ref">$mem</text><rect width="30" height="140" s:generic="body"/><g s:pid="in0" s:x="0" s:y="10"><text x="-3" y="-4" class="inputPortLabel" transform="translate(0,10)">RD_ADDR</text></g><g s:pid="in0" s:x="0" s:y="10"><text x="-3" y="-4" class="inputPortLabel" transform="translate(0,30)">RD_CLK</text></g><g s:pid="in0" s:x="0" s:y="10"><text x="-3" y="-4" class="inputPortLabel" transform="translate(0,50)">RD_EN</text></g><g s:pid="in0" s:x="0" s:y="10"><text x="-3" y="-4" class="inputPortLabel" transform="translate(0,70)">WR_ADDR</text></g><g s:pid="in0" s:x="0" s:y="10"><text x="-3" y="-4" class="inputPortLabel" transform="translate(0,90)">WR_CLK</text></g><g s:pid="in0" s:x="0" s:y="10"><text x="-3" y="-4" class="inputPortLabel" transform="translate(0,110)">WR_DATA</text></g><g s:pid="in0" s:x="0" s:y="10"><text x="-3" y="-4" class="inputPortLabel" transform="translate(0,130)">WR_EN</text></g><g s:pid="out0" s:x="30" s:y="10"><text x="5" y="-4" transform="translate(30,10)" style="fill:#000;stroke:none">RD_DATA</text></g></g><g transform="translate(12,130.5)" s:height="20" s:type="constant" s:width="30"><text x="15" y="-4" class="nodelabel" s:attribute="ref">1</text><s:alias val="$_constant_"/><rect width="30" height="20"/></g><line x1="168" x2="246" y1="26.5" y2="26.5"/><line x1="40" x2="137" y1="26.5" y2="26.5"/><line x1="40" x2="64" y1="85.5" y2="85.5"/><line x1="64" x2="64" y1="85.5" y2="46.5"/><line x1="64" x2="137" y1="46.5" y2="46.5"/><line x1="42" x2="74" y1="140.5" y2="140.5"/><line x1="74" x2="74" y1="140.5" y2="66.5"/><line x1="74" x2="137" y1="66.5" y2="66.5"/><line x1="84" x2="84" y1="106.5" y2="185.5"/><line x1="84" x2="84" y1="185.5" y2="86.5"/><line x1="84" x2="137" y1="86.5" y2="86.5"/><line x1="84" x2="84" y1="106.5" y2="185.5"/><line x1="84" x2="84" y1="185.5" y2="106.5"/><circle cx="84" cy="106.5" r="2" style="fill:#000"/><line x1="84" x2="137" y1="106.5" y2="106.5"/><line x1="84" x2="84" y1="106.5" y2="185.5"/><line x1="84" x2="84" y1="185.5" y2="126.5"/><circle cx="84" cy="126.5" r="2" style="fill:#000"/><line x1="84" x2="137" y1="126.5" y2="126.5"/><line x1="84" x2="84" y1="106.5" y2="185.5"/><line x1="84" x2="84" y1="185.5" y2="146.5"/><circle cx="84" cy="146.5" r="2" style="fill:#000"/><line x1="84" x2="137" y1="146.5" y2="146.5"/></svg>