<svg xmlns="http://www.w3.org/2000/svg" xmlns:s="https://github.com/nturley/netlistsvg" xmlns:xlink="http://www.w3.org/1999/xlink" width="521" height="516"><style>svg{stroke:#000;fill:none}text{fill:#000;stroke:none;font-size:10px;font-weight:700;font-family:&quot;Courier New&quot;,monospace}.nodelabel{text-anchor:middle}.inputPortLabel{text-anchor:end}.splitjoinBody{fill:#000}</style><g transform="translate(337,362.5)" s:height="20" s:type="inputExt" s:width="30"><text x="15" y="-4" class="nodelabel" s:attribute="ref">clk</text><s:alias val="$_inputExt_"/><path d="M0,0 L0,20 L15,20 L30,10 L15,0 Z"/></g><g transform="translate(96,193)" s:height="20" s:type="inputExt" s:width="30"><text x="15" y="-4" class="nodelabel" s:attribute="ref">iInbox</text><s:alias val="$_inputExt_"/><path d="M0,0 L0,20 L15,20 L30,10 L15,0 Z"/></g><g transform="translate(96,16)" s:height="20" s:type="inputExt" s:width="30"><text x="15" y="-4" class="nodelabel" s:attribute="ref">iAlu</text><s:alias val="$_inputExt_"/><path d="M0,0 L0,20 L15,20 L30,10 L15,0 Z"/></g><g transform="translate(96,134)" s:height="20" s:type="inputExt" s:width="30"><text x="15" y="-4" class="nodelabel" s:attribute="ref">iMem</text><s:alias val="$_inputExt_"/><path d="M0,0 L0,20 L15,20 L30,10 L15,0 Z"/></g><g transform="translate(96,75)" s:height="20" s:type="inputExt" s:width="30"><text x="15" y="-4" class="nodelabel" s:attribute="ref">iData</text><s:alias val="$_inputExt_"/><path d="M0,0 L0,20 L15,20 L30,10 L15,0 Z"/></g><g transform="translate(12,317)" s:height="20" s:type="inputExt" s:width="30"><text x="15" y="-4" class="nodelabel" s:attribute="ref">muxR</text><s:alias val="$_inputExt_"/><path d="M0,0 L0,20 L15,20 L30,10 L15,0 Z"/></g><g transform="translate(266,338.5)" s:height="20" s:type="inputExt" s:width="30"><text x="15" y="-4" class="nodelabel" s:attribute="ref">wR</text><s:alias val="$_inputExt_"/><path d="M0,0 L0,20 L15,20 L30,10 L15,0 Z"/></g><g transform="translate(476,45)" s:height="20" s:type="outputExt" s:width="30"><text x="15" y="-4" class="nodelabel" s:attribute="ref">R</text><s:alias val="$_outputExt_"/><path d="M30,0 L30,20 L15,20 L0,10 L15,0 Z"/></g><g transform="translate(411,45)" s:height="40" s:type="dff" s:width="30"><s:alias val="$dff"/><s:alias val="$_DFF_"/><rect width="30" height="40" x="0" y="0"/><path d="M0,35 L5,30 L0,25"/></g><g transform="translate(274.6666666666667,45)" s:height="40" s:type="mux" s:width="20"><s:alias val="$pmux"/><s:alias val="$mux"/><s:alias val="$_MUX_"/><path d="M0,0 L20,10 L20,30 L0,40 Z"/></g><g transform="translate(110.33333333333333,248)" s:height="25" s:type="eq" s:width="25"><s:alias val="$eq"/><circle cx="12.5" cy="12.5" r="12.5"/><line x1="7.5" x2="17.5" y1="10" y2="10"/><line x1="7.5" x2="17.5" y1="15" y2="15"/></g><g transform="translate(110.33333333333333,322)" s:height="25" s:type="eq" s:width="25"><s:alias val="$eq"/><circle cx="12.5" cy="12.5" r="12.5"/><line x1="7.5" x2="17.5" y1="10" y2="10"/><line x1="7.5" x2="17.5" y1="15" y2="15"/></g><g transform="translate(110.33333333333333,417)" s:height="25" s:type="eq" s:width="25"><s:alias val="$eq"/><circle cx="12.5" cy="12.5" r="12.5"/><line x1="7.5" x2="17.5" y1="10" y2="10"/><line x1="7.5" x2="17.5" y1="15" y2="15"/></g><g transform="translate(96,481)" s:height="40" s:type="generic" s:width="30"><text x="15" y="-4" class="nodelabel" s:attribute="ref">$logic_not</text><rect width="30" height="20" s:generic="body"/><g s:pid="in0" s:x="0" s:y="10"><text x="-3" y="-4" class="inputPortLabel" transform="translate(0,10)">A</text></g><g s:pid="out0" s:x="30" s:y="10"><text x="5" y="-4" transform="translate(30,10)" style="fill:#000;stroke:none">Y</text></g></g><g transform="translate(346.6666666666667,35)" s:height="40" s:type="mux" s:width="20"><s:alias val="$pmux"/><s:alias val="$mux"/><s:alias val="$_MUX_"/><path d="M0,0 L20,10 L20,30 L0,40 Z"/></g><g transform="translate(12,258)" s:height="20" s:type="constant" s:width="30"><text x="15" y="-4" class="nodelabel" s:attribute="ref">11</text><s:alias val="$_constant_"/><rect width="30" height="20"/></g><g transform="translate(12,372)" s:height="20" s:type="constant" s:width="30"><text x="15" y="-4" class="nodelabel" s:attribute="ref">10</text><s:alias val="$_constant_"/><rect width="30" height="20"/></g><g transform="translate(12,427)" s:height="20" s:type="constant" s:width="30"><text x="15" y="-4" class="nodelabel" s:attribute="ref">1</text><s:alias val="$_constant_"/><rect width="30" height="20"/></g><g transform="translate(225,54.5)" s:height="40" s:type="join" s:width="4"><rect width="5" height="80" class="splitjoinBody" s:generic="body"/><s:alias val="$_join_"/><g s:pid="in0" s:x="0" s:y="10"><text x="-3" y="-4" class="inputPortLabel" transform="translate(0,10)">0:7</text></g><g s:pid="in0" s:x="0" s:y="10"><text x="-3" y="-4" class="inputPortLabel" transform="translate(0,30)">8:15</text></g><g s:pid="in0" s:x="0" s:y="10"><text x="-3" y="-4" class="inputPortLabel" transform="translate(0,50)">16:23</text></g><g s:pid="in0" s:x="0" s:y="10"><text x="-3" y="-4" class="inputPortLabel" transform="translate(0,70)">24:31</text></g></g><g transform="translate(220.75,304)" s:height="40" s:type="join" s:width="4"><rect width="5" height="80" class="splitjoinBody" s:generic="body"/><s:alias val="$_join_"/><g s:pid="in0" s:x="0" s:y="10"><text x="-3" y="-4" class="inputPortLabel" transform="translate(0,10)">0</text></g><g s:pid="in0" s:x="0" s:y="10"><text x="-3" y="-4" class="inputPortLabel" transform="translate(0,30)">1</text></g><g s:pid="in0" s:x="0" s:y="10"><text x="-3" y="-4" class="inputPortLabel" transform="translate(0,50)">2</text></g><g s:pid="in0" s:x="0" s:y="10"><text x="-3" y="-4" class="inputPortLabel" transform="translate(0,70)">3</text></g></g><line x1="441" x2="476" y1="55" y2="55"/><line x1="441" x2="451" y1="55" y2="55"/><line x1="451" x2="451" y1="55" y2="24"/><line x1="451" x2="241" y1="24" y2="24"/><line x1="241" x2="241" y1="24" y2="55"/><circle cx="451" cy="55" r="2" style="fill:#000"/><line x1="241" x2="274.667" y1="55" y2="55"/><line x1="441" x2="451" y1="55" y2="55"/><line x1="451" x2="451" y1="55" y2="24"/><line x1="451" x2="312" y1="24" y2="24"/><line x1="312" x2="312" y1="24" y2="45"/><circle cx="312" cy="24" r="2" style="fill:#000"/><line x1="312" x2="346.667" y1="45" y2="45"/><line x1="365" x2="386" y1="372.5" y2="372.5"/><line x1="386" x2="386" y1="372.5" y2="75"/><line x1="386" x2="411" y1="75" y2="75"/><line x1="366.667" x2="411" y1="55" y2="55"/><line x1="231" x2="274.667" y1="75" y2="75"/><line x1="226.75" x2="284.667" y1="324.5" y2="324.5"/><line x1="284.667" x2="284.667" y1="324.5" y2="80"/><line x1="40" x2="74" y1="327" y2="327"/><line x1="74" x2="74" y1="327" y2="253"/><circle cx="74" cy="327" r="2" style="fill:#000"/><line x1="74" x2="113.333" y1="253" y2="253"/><line x1="40" x2="113.333" y1="327" y2="327"/><line x1="40" x2="74" y1="327" y2="327"/><line x1="74" x2="74" y1="327" y2="422"/><circle cx="74" cy="422" r="2" style="fill:#000"/><line x1="74" x2="113.333" y1="422" y2="422"/><line x1="40" x2="74" y1="327" y2="327"/><line x1="74" x2="74" y1="327" y2="491.5"/><line x1="74" x2="96" y1="491.5" y2="491.5"/><line x1="42" x2="113.333" y1="268" y2="268"/><line x1="42" x2="64" y1="382" y2="382"/><line x1="64" x2="64" y1="382" y2="342"/><line x1="64" x2="113.333" y1="342" y2="342"/><line x1="42" x2="113.333" y1="437" y2="437"/><line x1="294.667" x2="346.667" y1="65" y2="65"/><line x1="294" x2="356.667" y1="348.5" y2="348.5"/><line x1="356.667" x2="356.667" y1="348.5" y2="70"/><line x1="124" x2="181" y1="26" y2="26"/><line x1="181" x2="181" y1="26" y2="65"/><line x1="181" x2="225" y1="65" y2="65"/><line x1="124" x2="225" y1="85" y2="85"/><line x1="124" x2="181" y1="144" y2="144"/><line x1="181" x2="181" y1="144" y2="105"/><line x1="181" x2="225" y1="105" y2="105"/><line x1="124" x2="225.5" y1="203" y2="203"/><line x1="225.5" x2="225.5" y1="203" y2="125.5"/><line x1="135.333" x2="181" y1="260.5" y2="260.5"/><line x1="181" x2="181" y1="260.5" y2="314.5"/><line x1="181" x2="220.75" y1="314.5" y2="314.5"/><line x1="135.333" x2="220.75" y1="334.5" y2="334.5"/><line x1="135.333" x2="181" y1="429.5" y2="429.5"/><line x1="181" x2="181" y1="429.5" y2="354.5"/><line x1="181" x2="220.75" y1="354.5" y2="354.5"/><line x1="127" x2="221.25" y1="491.5" y2="491.5"/><line x1="221.25" x2="221.25" y1="491.5" y2="375"/></svg>