<svg xmlns="http://www.w3.org/2000/svg" xmlns:s="https://github.com/nturley/netlistsvg" xmlns:xlink="http://www.w3.org/1999/xlink" width="785" height="933"><style>svg{stroke:#000;fill:none}text{fill:#000;stroke:none;font-size:10px;font-weight:700;font-family:&quot;Courier New&quot;,monospace}.nodelabel{text-anchor:middle}.inputPortLabel{text-anchor:end}.splitjoinBody{fill:#000}</style><g transform="translate(439,207.5)" s:height="20" s:type="inputExt" s:width="30"><text x="15" y="-4" class="nodelabel" s:attribute="ref">clk</text><s:alias val="$_inputExt_"/><path d="M0,0 L0,20 L15,20 L30,10 L15,0 Z"/></g><g transform="translate(12,335)" s:height="20" s:type="inputExt" s:width="30"><text x="15" y="-4" class="nodelabel" s:attribute="ref">addr</text><s:alias val="$_inputExt_"/><path d="M0,0 L0,20 L15,20 L30,10 L15,0 Z"/></g><g transform="translate(161,92)" s:height="20" s:type="inputExt" s:width="30"><text x="15" y="-4" class="nodelabel" s:attribute="ref">write_en</text><s:alias val="$_inputExt_"/><path d="M0,0 L0,20 L15,20 L30,10 L15,0 Z"/></g><g transform="translate(350,183.5)" s:height="20" s:type="inputExt" s:width="30"><text x="15" y="-4" class="nodelabel" s:attribute="ref">rst</text><s:alias val="$_inputExt_"/><path d="M0,0 L0,20 L15,20 L30,10 L15,0 Z"/></g><g transform="translate(276,42)" s:height="20" s:type="inputExt" s:width="30"><text x="15" y="-4" class="nodelabel" s:attribute="ref">din</text><s:alias val="$_inputExt_"/><path d="M0,0 L0,20 L15,20 L30,10 L15,0 Z"/></g><g transform="translate(731,480.5)" s:height="20" s:type="outputExt" s:width="30"><text x="15" y="-4" class="nodelabel" s:attribute="ref">dout</text><s:alias val="$_outputExt_"/><path d="M30,0 L30,20 L15,20 L0,10 L15,0 Z"/></g><g transform="translate(593,295)" s:height="25" s:type="and" s:width="30"><s:alias val="$and"/><s:alias val="$logic_and"/><s:alias val="$_AND_"/><path d="M0,0 L0,25 L15,25 A15 12.5 0 0 0 15,0 Z"/></g><g transform="translate(161,337.5)" s:height="40" s:type="generic" s:width="30"><text x="15" y="-4" class="nodelabel" s:attribute="ref">$logic_not</text><rect width="30" height="20" s:generic="body"/><g s:pid="in0" s:x="0" s:y="10"><text x="-3" y="-4" class="inputPortLabel" transform="translate(0,10)">A</text></g><g s:pid="out0" s:x="30" s:y="10"><text x="5" y="-4" transform="translate(30,10)" style="fill:#000;stroke:none">Y</text></g></g><g transform="translate(175.33333333333334,885)" s:height="25" s:type="eq" s:width="25"><s:alias val="$eq"/><circle cx="12.5" cy="12.5" r="12.5"/><line x1="7.5" x2="17.5" y1="10" y2="10"/><line x1="7.5" x2="17.5" y1="15" y2="15"/></g><g transform="translate(279,97)" s:height="25" s:type="and" s:width="30"><s:alias val="$and"/><s:alias val="$logic_and"/><s:alias val="$_AND_"/><path d="M0,0 L0,25 L15,25 A15 12.5 0 0 0 15,0 Z"/></g><g transform="translate(279,157)" s:height="25" s:type="and" s:width="30"><s:alias val="$and"/><s:alias val="$logic_and"/><s:alias val="$_AND_"/><path d="M0,0 L0,25 L15,25 A15 12.5 0 0 0 15,0 Z"/></g><g transform="translate(659.5,297.5)" s:height="20" s:type="not" s:width="30"><s:alias val="$_NOT_"/><s:alias val="$not"/><path d="M0,0 L0,20 L20,10 Z"/><circle cx="23" cy="10" r="3"/></g><g transform="translate(659.5,237.5)" s:height="20" s:type="not" s:width="30"><s:alias val="$_NOT_"/><s:alias val="$not"/><path d="M0,0 L0,20 L20,10 Z"/><circle cx="23" cy="10" r="3"/></g><g transform="translate(659.5,42)" s:height="20" s:type="not" s:width="30"><s:alias val="$_NOT_"/><s:alias val="$not"/><path d="M0,0 L0,20 L20,10 Z"/><circle cx="23" cy="10" r="3"/></g><g transform="translate(593,235)" s:height="25" s:type="or" s:width="30"><s:alias val="$or"/><s:alias val="$logic_or"/><s:alias val="$_OR_"/><path d="M0,25 L0,25 L15,25 A15 12.5 0 0 0 15,0 L0,0"/><path d="M0,0 A30 25 0 0 1 0,25"/></g><g transform="translate(513,187.5)" s:height="40" s:type="dff" s:width="30"><s:alias val="$dff"/><s:alias val="$_DFF_"/><rect width="30" height="40" x="0" y="0"/><path d="M0,35 L5,30 L0,25"/></g><g transform="translate(513,42)" s:height="40" s:type="dff" s:width="30"><s:alias val="$dff"/><s:alias val="$_DFF_"/><rect width="30" height="40" x="0" y="0"/><path d="M0,35 L5,30 L0,25"/></g><g transform="translate(664.5,470.5)" s:height="40" s:type="mux" s:width="20"><s:alias val="$pmux"/><s:alias val="$mux"/><s:alias val="$_MUX_"/><path d="M0,0 L20,10 L20,30 L0,40 Z"/></g><g transform="translate(514.6666666666667,317.5)" s:height="25" s:type="eq" s:width="25"><s:alias val="$eq"/><circle cx="12.5" cy="12.5" r="12.5"/><line x1="7.5" x2="17.5" y1="10" y2="10"/><line x1="7.5" x2="17.5" y1="15" y2="15"/></g><g transform="translate(514.6666666666667,491.5)" s:height="25" s:type="eq" s:width="25"><s:alias val="$eq"/><circle cx="12.5" cy="12.5" r="12.5"/><line x1="7.5" x2="17.5" y1="10" y2="10"/><line x1="7.5" x2="17.5" y1="15" y2="15"/></g><g transform="translate(514.6666666666667,551.5)" s:height="25" s:type="eq" s:width="25"><s:alias val="$eq"/><circle cx="12.5" cy="12.5" r="12.5"/><line x1="7.5" x2="17.5" y1="10" y2="10"/><line x1="7.5" x2="17.5" y1="15" y2="15"/></g><g transform="translate(514.6666666666667,611.5)" s:height="25" s:type="eq" s:width="25"><s:alias val="$eq"/><circle cx="12.5" cy="12.5" r="12.5"/><line x1="7.5" x2="17.5" y1="10" y2="10"/><line x1="7.5" x2="17.5" y1="15" y2="15"/></g><g transform="translate(514.6666666666667,671.5)" s:height="25" s:type="eq" s:width="25"><s:alias val="$eq"/><circle cx="12.5" cy="12.5" r="12.5"/><line x1="7.5" x2="17.5" y1="10" y2="10"/><line x1="7.5" x2="17.5" y1="15" y2="15"/></g><g transform="translate(514.6666666666667,731.5)" s:height="25" s:type="eq" s:width="25"><s:alias val="$eq"/><circle cx="12.5" cy="12.5" r="12.5"/><line x1="7.5" x2="17.5" y1="10" y2="10"/><line x1="7.5" x2="17.5" y1="15" y2="15"/></g><g transform="translate(514.6666666666667,791.5)" s:height="25" s:type="eq" s:width="25"><s:alias val="$eq"/><circle cx="12.5" cy="12.5" r="12.5"/><line x1="7.5" x2="17.5" y1="10" y2="10"/><line x1="7.5" x2="17.5" y1="15" y2="15"/></g><g transform="translate(514.6666666666667,851.5)" s:height="25" s:type="eq" s:width="25"><s:alias val="$eq"/><circle cx="12.5" cy="12.5" r="12.5"/><line x1="7.5" x2="17.5" y1="10" y2="10"/><line x1="7.5" x2="17.5" y1="15" y2="15"/></g><g transform="translate(359.6666666666667,119.5)" s:height="40" s:type="mux" s:width="20"><s:alias val="$pmux"/><s:alias val="$mux"/><s:alias val="$_MUX_"/><path d="M0,0 L20,10 L20,30 L0,40 Z"/></g><g transform="translate(445.3333333333333,262.5)" s:height="40" s:type="mux" s:width="20"><s:alias val="$pmux"/><s:alias val="$mux"/><s:alias val="$_MUX_"/><path d="M0,0 L20,10 L20,30 L0,40 Z"/></g><g transform="translate(359.6666666666667,22)" s:height="40" s:type="mux" s:width="20"><s:alias val="$pmux"/><s:alias val="$mux"/><s:alias val="$_MUX_"/><path d="M0,0 L20,10 L20,30 L0,40 Z"/></g><g transform="translate(445.3333333333333,32)" s:height="40" s:type="mux" s:width="20"><s:alias val="$pmux"/><s:alias val="$mux"/><s:alias val="$_MUX_"/><path d="M0,0 L20,10 L20,30 L0,40 Z"/></g><g transform="translate(658,177.5)" s:height="25" s:type="reduce_xor" s:width="33"><s:alias val="$xor"/><s:alias val="$reduce_xor"/><s:alias val="$_XOR_"/><path d="M3,0 A30 25 0 0 1 3,25 A30 25 0 0 0 33,12.5 A30 25 0 0 0 3,0"/><path d="M0,0 A30 25 0 0 1 0,25"/></g><g transform="translate(89,895)" s:height="20" s:type="constant" s:width="30"><text x="15" y="-4" class="nodelabel" s:attribute="ref">1</text><s:alias val="$_constant_"/><rect width="30" height="20"/></g><g transform="translate(350,282.5)" s:height="20" s:type="constant" s:width="30"><text x="15" y="-4" class="nodelabel" s:attribute="ref">0x0</text><s:alias val="$_constant_"/><rect width="30" height="20"/></g><g transform="translate(658,338.5)" s:height="20" s:type="constant" s:width="30"><text x="15" y="-4" class="nodelabel" s:attribute="ref">0</text><s:alias val="$_constant_"/><rect width="30" height="20"/></g><g transform="translate(439,333.5)" s:height="20" s:type="constant" s:width="30"><text x="15" y="-4" class="nodelabel" s:attribute="ref">0x9</text><s:alias val="$_constant_"/><rect width="30" height="20"/></g><g transform="translate(439,507.5)" s:height="20" s:type="constant" s:width="30"><text x="15" y="-4" class="nodelabel" s:attribute="ref">0x8</text><s:alias val="$_constant_"/><rect width="30" height="20"/></g><g transform="translate(439,567.5)" s:height="20" s:type="constant" s:width="30"><text x="15" y="-4" class="nodelabel" s:attribute="ref">111</text><s:alias val="$_constant_"/><rect width="30" height="20"/></g><g transform="translate(439,627.5)" s:height="20" s:type="constant" s:width="30"><text x="15" y="-4" class="nodelabel" s:attribute="ref">110</text><s:alias val="$_constant_"/><rect width="30" height="20"/></g><g transform="translate(439,687.5)" s:height="20" s:type="constant" s:width="30"><text x="15" y="-4" class="nodelabel" s:attribute="ref">101</text><s:alias val="$_constant_"/><rect width="30" height="20"/></g><g transform="translate(439,747.5)" s:height="20" s:type="constant" s:width="30"><text x="15" y="-4" class="nodelabel" s:attribute="ref">100</text><s:alias val="$_constant_"/><rect width="30" height="20"/></g><g transform="translate(439,807.5)" s:height="20" s:type="constant" s:width="30"><text x="15" y="-4" class="nodelabel" s:attribute="ref">11</text><s:alias val="$_constant_"/><rect width="30" height="20"/></g><g transform="translate(439,867.5)" s:height="20" s:type="constant" s:width="30"><text x="15" y="-4" class="nodelabel" s:attribute="ref">10</text><s:alias val="$_constant_"/><rect width="30" height="20"/></g><g transform="translate(731,217)" s:height="40" s:type="join" s:width="4"><rect width="5" height="180" class="splitjoinBody" s:generic="body"/><s:alias val="$_join_"/><g s:pid="in0" s:x="0" s:y="10"><text x="-3" y="-4" class="inputPortLabel" transform="translate(0,10)">0:7</text></g><g s:pid="in0" s:x="0" s:y="10"><text x="-3" y="-4" class="inputPortLabel" transform="translate(0,30)">8:15</text></g><g s:pid="in0" s:x="0" s:y="10"><text x="-3" y="-4" class="inputPortLabel" transform="translate(0,50)">16:23</text></g><g s:pid="in0" s:x="0" s:y="10"><text x="-3" y="-4" class="inputPortLabel" transform="translate(0,70)">24:31</text></g><g s:pid="in0" s:x="0" s:y="10"><text x="-3" y="-4" class="inputPortLabel" transform="translate(0,90)">32:39</text></g><g s:pid="in0" s:x="0" s:y="10"><text x="-3" y="-4" class="inputPortLabel" transform="translate(0,110)">40:47</text></g><g s:pid="in0" s:x="0" s:y="10"><text x="-3" y="-4" class="inputPortLabel" transform="translate(0,130)">48</text></g><g s:pid="in0" s:x="0" s:y="10"><text x="-3" y="-4" class="inputPortLabel" transform="translate(0,150)">49:55</text></g><g s:pid="in0" s:x="0" s:y="10"><text x="-3" y="-4" class="inputPortLabel" transform="translate(0,170)">56:62</text></g></g><g transform="translate(595.8888888888889,593.5)" s:height="40" s:type="join" s:width="4"><rect width="5" height="200" class="splitjoinBody" s:generic="body"/><s:alias val="$_join_"/><g s:pid="in0" s:x="0" s:y="10"><text x="-3" y="-4" class="inputPortLabel" transform="translate(0,10)">0</text></g><g s:pid="in0" s:x="0" s:y="10"><text x="-3" y="-4" class="inputPortLabel" transform="translate(0,30)">1</text></g><g s:pid="in0" s:x="0" s:y="10"><text x="-3" y="-4" class="inputPortLabel" transform="translate(0,50)">2</text></g><g s:pid="in0" s:x="0" s:y="10"><text x="-3" y="-4" class="inputPortLabel" transform="translate(0,70)">3</text></g><g s:pid="in0" s:x="0" s:y="10"><text x="-3" y="-4" class="inputPortLabel" transform="translate(0,90)">4</text></g><g s:pid="in0" s:x="0" s:y="10"><text x="-3" y="-4" class="inputPortLabel" transform="translate(0,110)">5</text></g><g s:pid="in0" s:x="0" s:y="10"><text x="-3" y="-4" class="inputPortLabel" transform="translate(0,130)">6</text></g><g s:pid="in0" s:x="0" s:y="10"><text x="-3" y="-4" class="inputPortLabel" transform="translate(0,150)">7</text></g><g s:pid="in0" s:x="0" s:y="10"><text x="-3" y="-4" class="inputPortLabel" transform="translate(0,170)">8</text></g><g s:pid="in0" s:x="0" s:y="10"><text x="-3" y="-4" class="inputPortLabel" transform="translate(0,190)">9</text></g></g><g transform="translate(95,312)" s:height="40" s:type="split" s:width="5"><rect width="5" height="20" class="splitjoinBody" s:generic="body"/><s:alias val="$_split_"/><g s:pid="out0" s:x="4" s:y="10"><text x="5" y="-4" transform="translate(4,10)">0:3</text></g></g><g transform="translate(667,395.5)" s:height="40" s:type="split" s:width="5"><rect width="5" height="40" class="splitjoinBody" s:generic="body"/><s:alias val="$_split_"/><g s:pid="out0" s:x="4" s:y="10"><text x="5" y="-4" transform="translate(4,10)">0:6</text></g><g s:pid="out0" s:x="4" s:y="10"><text x="5" y="-4" transform="translate(4,30)">1:7</text></g></g><line x1="684.5" x2="731" y1="490.5" y2="490.5"/><line x1="543" x2="563" y1="52" y2="52"/><line x1="563" x2="563" y1="52" y2="300"/><circle cx="563" cy="300" r="2" style="fill:#000"/><line x1="563" x2="593" y1="300" y2="300"/><line x1="543" x2="659.5" y1="52" y2="52"/><line x1="543" x2="563" y1="52" y2="52"/><line x1="563" x2="563" y1="52" y2="240"/><circle cx="563" cy="240" r="2" style="fill:#000"/><line x1="563" x2="596" y1="240" y2="240"/><line x1="543" x2="563" y1="52" y2="52"/><line x1="563" x2="563" y1="52" y2="12"/><line x1="563" x2="335" y1="12" y2="12"/><line x1="335" x2="335" y1="12" y2="32"/><circle cx="563" cy="52" r="2" style="fill:#000"/><line x1="335" x2="359.667" y1="32" y2="32"/><line x1="543" x2="633" y1="52" y2="52"/><line x1="633" x2="633" y1="52" y2="182.5"/><circle cx="633" cy="52" r="2" style="fill:#000"/><line x1="633" x2="661" y1="182.5" y2="182.5"/><line x1="543" x2="563" y1="52" y2="52"/><line x1="563" x2="563" y1="52" y2="416"/><line x1="563" x2="667" y1="416" y2="416"/><line x1="543" x2="553" y1="197.5" y2="197.5"/><line x1="553" x2="553" y1="197.5" y2="315"/><line x1="553" x2="593" y1="315" y2="315"/><line x1="543" x2="553" y1="197.5" y2="197.5"/><line x1="553" x2="553" y1="197.5" y2="255"/><circle cx="553" cy="255" r="2" style="fill:#000"/><line x1="553" x2="596" y1="255" y2="255"/><line x1="543" x2="553" y1="197.5" y2="197.5"/><line x1="553" x2="553" y1="197.5" y2="99.5"/><line x1="553" x2="335" y1="99.5" y2="99.5"/><line x1="335" x2="335" y1="99.5" y2="129.5"/><circle cx="553" cy="197.5" r="2" style="fill:#000"/><line x1="335" x2="359.667" y1="129.5" y2="129.5"/><line x1="543" x2="661" y1="197.5" y2="197.5"/><line x1="100" x2="129" y1="322.5" y2="322.5"/><line x1="129" x2="129" y1="322.5" y2="348"/><circle cx="129" cy="322.5" r="2" style="fill:#000"/><circle cx="129" cy="348" r="2" style="fill:#000"/><line x1="129" x2="161" y1="348" y2="348"/><line x1="100" x2="129" y1="322.5" y2="322.5"/><line x1="129" x2="129" y1="322.5" y2="890"/><circle cx="129" cy="890" r="2" style="fill:#000"/><line x1="129" x2="178.333" y1="890" y2="890"/><line x1="100" x2="517.667" y1="322.5" y2="322.5"/><line x1="100" x2="399" y1="322.5" y2="322.5"/><line x1="399" x2="399" y1="322.5" y2="496.5"/><circle cx="399" cy="322.5" r="2" style="fill:#000"/><circle cx="399" cy="496.5" r="2" style="fill:#000"/><line x1="399" x2="517.667" y1="496.5" y2="496.5"/><line x1="100" x2="399" y1="322.5" y2="322.5"/><line x1="399" x2="399" y1="322.5" y2="556.5"/><circle cx="399" cy="556.5" r="2" style="fill:#000"/><line x1="399" x2="517.667" y1="556.5" y2="556.5"/><line x1="100" x2="399" y1="322.5" y2="322.5"/><line x1="399" x2="399" y1="322.5" y2="616.5"/><circle cx="399" cy="616.5" r="2" style="fill:#000"/><line x1="399" x2="517.667" y1="616.5" y2="616.5"/><line x1="100" x2="129" y1="322.5" y2="322.5"/><line x1="129" x2="129" y1="322.5" y2="920"/><line x1="129" x2="266" y1="920" y2="920"/><line x1="266" x2="266" y1="920" y2="322.5"/><line x1="266" x2="399" y1="322.5" y2="322.5"/><line x1="399" x2="399" y1="322.5" y2="676.5"/><circle cx="266" cy="322.5" r="2" style="fill:#000"/><circle cx="399" cy="676.5" r="2" style="fill:#000"/><line x1="399" x2="517.667" y1="676.5" y2="676.5"/><line x1="100" x2="129" y1="322.5" y2="322.5"/><line x1="129" x2="129" y1="322.5" y2="920"/><line x1="129" x2="266" y1="920" y2="920"/><line x1="266" x2="266" y1="920" y2="322.5"/><line x1="266" x2="399" y1="322.5" y2="322.5"/><line x1="399" x2="399" y1="322.5" y2="736.5"/><circle cx="399" cy="736.5" r="2" style="fill:#000"/><line x1="399" x2="517.667" y1="736.5" y2="736.5"/><line x1="100" x2="129" y1="322.5" y2="322.5"/><line x1="129" x2="129" y1="322.5" y2="920"/><line x1="129" x2="266" y1="920" y2="920"/><line x1="266" x2="266" y1="920" y2="322.5"/><line x1="266" x2="399" y1="322.5" y2="322.5"/><line x1="399" x2="399" y1="322.5" y2="796.5"/><circle cx="399" cy="796.5" r="2" style="fill:#000"/><line x1="399" x2="517.667" y1="796.5" y2="796.5"/><line x1="100" x2="129" y1="322.5" y2="322.5"/><line x1="129" x2="129" y1="322.5" y2="920"/><line x1="129" x2="266" y1="920" y2="920"/><line x1="266" x2="266" y1="920" y2="322.5"/><line x1="266" x2="399" y1="322.5" y2="322.5"/><line x1="399" x2="399" y1="322.5" y2="856.5"/><line x1="399" x2="517.667" y1="856.5" y2="856.5"/><line x1="119" x2="178.333" y1="905" y2="905"/><line x1="189" x2="279" y1="102" y2="102"/><line x1="189" x2="256" y1="102" y2="102"/><line x1="256" x2="256" y1="102" y2="162"/><circle cx="256" cy="102" r="2" style="fill:#000"/><line x1="256" x2="279" y1="162" y2="162"/><line x1="192" x2="246" y1="348" y2="348"/><line x1="246" x2="246" y1="348" y2="117"/><circle cx="246" cy="348" r="2" style="fill:#000"/><line x1="246" x2="279" y1="117" y2="117"/><line x1="192" x2="246" y1="348" y2="348"/><line x1="246" x2="246" y1="348" y2="908.5"/><line x1="246" x2="596.389" y1="908.5" y2="908.5"/><line x1="596.389" x2="596.389" y1="908.5" y2="784.5"/><line x1="200.333" x2="256" y1="897.5" y2="897.5"/><line x1="256" x2="256" y1="897.5" y2="177"/><circle cx="256" cy="897.5" r="2" style="fill:#000"/><line x1="256" x2="279" y1="177" y2="177"/><line x1="200.333" x2="583" y1="897.5" y2="897.5"/><line x1="583" x2="583" y1="897.5" y2="764"/><line x1="583" x2="595.889" y1="764" y2="764"/><line x1="623" x2="659.5" y1="307.5" y2="307.5"/><line x1="623" x2="633" y1="307.5" y2="307.5"/><line x1="633" x2="633" y1="307.5" y2="327.5"/><circle cx="633" cy="307.5" r="2" style="fill:#000"/><line x1="633" x2="731" y1="327.5" y2="327.5"/><line x1="623" x2="659.5" y1="247.5" y2="247.5"/><line x1="623" x2="633" y1="247.5" y2="247.5"/><line x1="633" x2="633" y1="247.5" y2="267.5"/><line x1="633" x2="701" y1="267.5" y2="267.5"/><line x1="701" x2="701" y1="267.5" y2="287.5"/><circle cx="633" cy="247.5" r="2" style="fill:#000"/><line x1="701" x2="731" y1="287.5" y2="287.5"/><line x1="467" x2="513" y1="217.5" y2="217.5"/><line x1="467" x2="488" y1="217.5" y2="217.5"/><line x1="488" x2="488" y1="217.5" y2="72"/><circle cx="488" cy="217.5" r="2" style="fill:#000"/><line x1="488" x2="513" y1="72" y2="72"/><line x1="465.333" x2="498" y1="282.5" y2="282.5"/><line x1="498" x2="498" y1="282.5" y2="197.5"/><line x1="498" x2="513" y1="197.5" y2="197.5"/><line x1="465.333" x2="513" y1="52" y2="52"/><line x1="380" x2="409" y1="292.5" y2="292.5"/><line x1="409" x2="409" y1="292.5" y2="480.5"/><circle cx="409" cy="292.5" r="2" style="fill:#000"/><line x1="409" x2="664.5" y1="480.5" y2="480.5"/><line x1="380" x2="445.333" y1="292.5" y2="292.5"/><line x1="380" x2="409" y1="292.5" y2="292.5"/><line x1="409" x2="409" y1="292.5" y2="62"/><line x1="409" x2="445.333" y1="62" y2="62"/><line x1="601.889" x2="674.5" y1="614" y2="614"/><line x1="674.5" x2="674.5" y1="614" y2="505.5"/><line x1="469" x2="488" y1="343.5" y2="343.5"/><line x1="488" x2="488" y1="343.5" y2="337.5"/><line x1="488" x2="517.667" y1="337.5" y2="337.5"/><line x1="469" x2="488" y1="517.5" y2="517.5"/><line x1="488" x2="488" y1="517.5" y2="511.5"/><line x1="488" x2="517.667" y1="511.5" y2="511.5"/><line x1="469" x2="488" y1="577.5" y2="577.5"/><line x1="488" x2="488" y1="577.5" y2="571.5"/><line x1="488" x2="517.667" y1="571.5" y2="571.5"/><line x1="469" x2="488" y1="637.5" y2="637.5"/><line x1="488" x2="488" y1="637.5" y2="631.5"/><line x1="488" x2="517.667" y1="631.5" y2="631.5"/><line x1="469" x2="488" y1="697.5" y2="697.5"/><line x1="488" x2="488" y1="697.5" y2="691.5"/><line x1="488" x2="517.667" y1="691.5" y2="691.5"/><line x1="469" x2="488" y1="757.5" y2="757.5"/><line x1="488" x2="488" y1="757.5" y2="751.5"/><line x1="488" x2="517.667" y1="751.5" y2="751.5"/><line x1="469" x2="488" y1="817.5" y2="817.5"/><line x1="488" x2="488" y1="817.5" y2="811.5"/><line x1="488" x2="517.667" y1="811.5" y2="811.5"/><line x1="469" x2="488" y1="877.5" y2="877.5"/><line x1="488" x2="488" y1="877.5" y2="871.5"/><line x1="488" x2="517.667" y1="871.5" y2="871.5"/><line x1="304" x2="325" y1="52" y2="52"/><line x1="325" x2="325" y1="52" y2="149.5"/><circle cx="325" cy="52" r="2" style="fill:#000"/><line x1="325" x2="359.667" y1="149.5" y2="149.5"/><line x1="304" x2="359.667" y1="52" y2="52"/><line x1="309" x2="369.667" y1="169.5" y2="169.5"/><line x1="369.667" x2="369.667" y1="169.5" y2="154.5"/><line x1="379.667" x2="429" y1="139.5" y2="139.5"/><line x1="429" x2="429" y1="139.5" y2="272.5"/><line x1="429" x2="445.333" y1="272.5" y2="272.5"/><line x1="378" x2="419" y1="193.5" y2="193.5"/><line x1="419" x2="419" y1="193.5" y2="312.5"/><line x1="419" x2="455.333" y1="312.5" y2="312.5"/><circle cx="419" cy="193.5" r="2" style="fill:#000"/><line x1="455.333" x2="455.333" y1="312.5" y2="297.5"/><line x1="378" x2="455.333" y1="193.5" y2="193.5"/><line x1="455.333" x2="455.333" y1="193.5" y2="67"/><line x1="309" x2="369.667" y1="109.5" y2="109.5"/><line x1="369.667" x2="369.667" y1="109.5" y2="57"/><line x1="379.667" x2="445.333" y1="42" y2="42"/><line x1="684.5" x2="731.5" y1="52" y2="52"/><line x1="731.5" x2="731.5" y1="52" y2="227"/><line x1="691" x2="721" y1="190" y2="190"/><line x1="721" x2="721" y1="190" y2="247.5"/><line x1="721" x2="731" y1="247.5" y2="247.5"/><line x1="684.5" x2="711" y1="247.5" y2="247.5"/><line x1="711" x2="711" y1="247.5" y2="267.5"/><line x1="711" x2="731" y1="267.5" y2="267.5"/><line x1="684.5" x2="731" y1="307.5" y2="307.5"/><line x1="688" x2="701" y1="348.5" y2="348.5"/><line x1="701" x2="701" y1="348.5" y2="347.5"/><line x1="701" x2="731" y1="347.5" y2="347.5"/><line x1="672" x2="701" y1="406" y2="406"/><line x1="701" x2="701" y1="406" y2="367.5"/><line x1="701" x2="731" y1="367.5" y2="367.5"/><line x1="672" x2="731.5" y1="426" y2="426"/><line x1="731.5" x2="731.5" y1="426" y2="388"/><line x1="539.667" x2="596.389" y1="330" y2="330"/><line x1="596.389" x2="596.389" y1="330" y2="603.5"/><line x1="539.667" x2="573" y1="504" y2="504"/><line x1="573" x2="573" y1="504" y2="624"/><line x1="573" x2="595.889" y1="624" y2="624"/><line x1="539.667" x2="563" y1="564" y2="564"/><line x1="563" x2="563" y1="564" y2="644"/><line x1="563" x2="595.889" y1="644" y2="644"/><line x1="539.667" x2="553" y1="624" y2="624"/><line x1="553" x2="553" y1="624" y2="664"/><line x1="553" x2="595.889" y1="664" y2="664"/><line x1="539.667" x2="595.889" y1="684" y2="684"/><line x1="539.667" x2="553" y1="744" y2="744"/><line x1="553" x2="553" y1="744" y2="704"/><line x1="553" x2="595.889" y1="704" y2="704"/><line x1="539.667" x2="563" y1="804" y2="804"/><line x1="563" x2="563" y1="804" y2="724"/><line x1="563" x2="595.889" y1="724" y2="724"/><line x1="539.667" x2="573" y1="864" y2="864"/><line x1="573" x2="573" y1="864" y2="744"/><line x1="573" x2="595.889" y1="744" y2="744"/><line x1="40" x2="95.5" y1="345" y2="345"/><line x1="95.5" x2="95.5" y1="345" y2="333"/></svg>