<svg xmlns="http://www.w3.org/2000/svg" xmlns:xlink="http://www.w3.org/1999/xlink" width="376" height="228" version="1.1" viewBox="-117 -50 376 228.5" xml:space="preserve"><style type="text/css">.fnt1,.fnt2{fill:#000;font-family:Helvetica;font-size:12pt;font-weight:400;font-style:normal}.fnt2{font-size:14pt;font-weight:700}</style><defs><marker id="arrow_back" markerHeight="8" markerUnits="userSpaceOnUse" markerWidth="8" orient="auto" refX="4.8" refY="4" viewBox="0 0 8 8"><g><path fill="#000" stroke="none" d="M 0 -4 C -2 -1, -2 1, 0 4 L -8 0 z" transform="translate(8.0,4.0)"/></g></marker><marker id="arrow_fwd" markerHeight="8" markerUnits="userSpaceOnUse" markerWidth="8" orient="auto" refX="3.2" refY="4" viewBox="0 0 8 8"><g><path fill="#000" stroke="none" d="M 0 -4 C 2 -1, 2 1, 0 4 L 8 0 z" transform="translate(-0.0,4.0)"/></g></marker></defs><rect width="100%" height="100%" x="-117" y="-50" fill="#fff"/><g transform="translate(0,0)"><rect width="160" height="90" x="0" y="-15" fill="#C8C8C8" stroke="#646464" stroke-width="1"/><g transform="translate(0,0)"><line x1="-20" x2="0" y1="0" y2="0" fill="none" stroke="#000" stroke-width="1"/><text x="10" y="0" class="fnt1" dy="5.5" text-anchor="normal">foo</text><text x="-30" y="0" class="fnt1" dy="5.5" text-anchor="end" style="fill:#969696">real</text></g><g transform="translate(0,20)"><line x1="-20" x2="0" y1="0" y2="0" fill="none" stroke="#000" stroke-width="1"/><text x="10" y="0" class="fnt1" dy="5.5" text-anchor="normal">bar</text><text x="-30" y="0" class="fnt1" dy="5.5" text-anchor="end" style="fill:#969696">real</text></g><g transform="translate(0,40)"><line x1="-20" x2="0" y1="0" y2="0" fill="none" stroke="#000" stroke-width="1"/><text x="10" y="0" class="fnt1" dy="5.5" text-anchor="normal">baz</text><text x="-30" y="0" class="fnt1" dy="5.5" text-anchor="end" style="fill:#969696">real</text></g><g transform="translate(0,60)"><line x1="-20" x2="0" y1="0" y2="0" fill="none" stroke="#000" stroke-width="3"/><text x="10" y="0" class="fnt1" dy="5.5" text-anchor="normal">zip</text><text x="-30" y="0" class="fnt1" dy="5.5" text-anchor="end" style="fill:#969696">signed <tspan fill="#039BE5">[7:0]</tspan></text></g></g><rect width="158" height="88" x="1" y="-14" fill="none" stroke="#646464" stroke-width="3"/><text x="80" y="-24" class="fnt2" dy="-2" text-anchor="middle">newstyle</text><g transform="translate(0,98.0)"><rect width="160" height="90" x="0" y="-15" fill="#C5DBFC" stroke="#000" stroke-width="1"/><g transform="translate(0,0)"><line x1="-20" x2="0" y1="0" y2="0" fill="none" stroke="#000" stroke-width="1"/><text x="10" y="0" class="fnt1" dy="5.5" text-anchor="normal">x</text></g><g transform="translate(0,20)"><line x1="-20" x2="0" y1="0" y2="0" fill="none" stroke="#000" stroke-width="1"/><text x="10" y="0" class="fnt1" dy="5.5" text-anchor="normal">x2</text></g><g transform="translate(160,0)"><line x1="16.16" x2="3.84" y1="0" y2="0" fill="none" stroke="#000" stroke-width="1" marker-end="url(#arrow_fwd)" marker-start="url(#arrow_back)"/><text x="-10" y="0" class="fnt1" dy="5.5" text-anchor="end">y</text></g><g transform="translate(160,20)"><line x1="16.16" x2="3.84" y1="0" y2="0" fill="none" stroke="#000" stroke-width="1" marker-end="url(#arrow_fwd)" marker-start="url(#arrow_back)"/><text x="-10" y="0" class="fnt1" dy="5.5" text-anchor="end">y2_long_output</text></g><g transform="translate(160,40)"><line x1="20" x2="0" y1="0" y2="0" fill="none" stroke="#000" stroke-width="3"/><text x="-10" y="0" class="fnt1" dy="5.5" text-anchor="end">z</text><text x="30" y="0" class="fnt1" dy="5.5" text-anchor="normal" style="fill:#969696">wire <tspan fill="#039BE5">[4:1]</tspan></text></g><g transform="translate(160,60)"><line x1="20" x2="0" y1="0" y2="0" fill="none" stroke="#000" stroke-width="3"/><text x="-10" y="0" class="fnt1" dy="5.5" text-anchor="end">z2</text><text x="30" y="0" class="fnt1" dy="5.5" text-anchor="normal" style="fill:#969696">wire <tspan fill="#039BE5">[4:1]</tspan></text></g></g><rect width="158" height="88" x="1" y="84" fill="none" stroke="#000" stroke-width="3"/></svg>