<svg xmlns="http://www.w3.org/2000/svg" xmlns:xlink="http://www.w3.org/1999/xlink" width="343" height="210" version="1.1" viewBox="-99 -50 343 210.5" xml:space="preserve"><style type="text/css">.fnt1,.fnt2{fill:#000;font-family:Helvetica;font-size:12pt;font-weight:400;font-style:normal}.fnt2{font-size:14pt;font-weight:700}</style><defs><marker id="clock" markerHeight="15" markerUnits="userSpaceOnUse" markerWidth="8" orient="auto" refX=".5" refY="7.5" viewBox="0 0 8 15"><g><path fill="#FFF" stroke="#000" stroke-width="1" d="M 0 -7 L 0 7 L 7 0 z" transform="translate(0.5,7.5)"/></g></marker></defs><rect width="100%" height="100%" x="-99" y="-50" fill="#fff"/><g transform="translate(0,0)"><rect width="100" height="170" x="0" y="-15" fill="#C5DBFC" stroke="#000" stroke-width="1"/><g transform="translate(0,0)"><line x1="-20" x2="0" y1="0" y2="0" fill="none" stroke="#000" stroke-width="1" marker-end="url(#clock)"/><text x="10" y="0" class="fnt1" dy="5.5" text-anchor="normal">clk</text></g><g transform="translate(0,20)"><line x1="-20" x2="0" y1="0" y2="0" fill="none" stroke="#000" stroke-width="3"/><text x="10" y="0" class="fnt1" dy="5.5" text-anchor="normal">iInbox</text><text x="-30" y="0" class="fnt1" dy="5.5" text-anchor="end" style="fill:#969696"><tspan fill="#039BE5">[7:0]</tspan></text></g><g transform="translate(0,40)"><line x1="-20" x2="0" y1="0" y2="0" fill="none" stroke="#000" stroke-width="3"/><text x="10" y="0" class="fnt1" dy="5.5" text-anchor="normal">iAlu</text><text x="-30" y="0" class="fnt1" dy="5.5" text-anchor="end" style="fill:#969696"><tspan fill="#039BE5">[7:0]</tspan></text></g><g transform="translate(0,60)"><line x1="-20" x2="0" y1="0" y2="0" fill="none" stroke="#000" stroke-width="3"/><text x="10" y="0" class="fnt1" dy="5.5" text-anchor="normal">iMem</text><text x="-30" y="0" class="fnt1" dy="5.5" text-anchor="end" style="fill:#969696"><tspan fill="#039BE5">[7:0]</tspan></text></g><g transform="translate(0,80)"><line x1="-20" x2="0" y1="0" y2="0" fill="none" stroke="#000" stroke-width="3"/><text x="10" y="0" class="fnt1" dy="5.5" text-anchor="normal">iData</text><text x="-30" y="0" class="fnt1" dy="5.5" text-anchor="end" style="fill:#969696"><tspan fill="#039BE5">[7:0]</tspan></text></g><g transform="translate(0,100)"><line x1="-20" x2="0" y1="0" y2="0" fill="none" stroke="#000" stroke-width="3"/><text x="10" y="0" class="fnt1" dy="5.5" text-anchor="normal">muxR</text><text x="-30" y="0" class="fnt1" dy="5.5" text-anchor="end" style="fill:#969696">wire <tspan fill="#039BE5">[1:0]</tspan></text></g><g transform="translate(0,120)"><line x1="-20" x2="0" y1="0" y2="0" fill="none" stroke="#000" stroke-width="1"/><text x="10" y="0" class="fnt1" dy="5.5" text-anchor="normal">wR</text></g><g transform="translate(0,140)"><line x1="-20" x2="0" y1="0" y2="0" fill="none" stroke="#000" stroke-width="1"/><text x="10" y="0" class="fnt1" dy="5.5" text-anchor="normal">rst</text></g><g transform="translate(100,0)"><line x1="20" x2="0" y1="0" y2="0" fill="none" stroke="#000" stroke-width="3"/><text x="-10" y="0" class="fnt1" dy="5.5" text-anchor="end">R</text><text x="30" y="0" class="fnt1" dy="5.5" text-anchor="normal" style="fill:#969696">reg signed <tspan fill="#039BE5">[7:0]</tspan></text></g></g><rect width="98" height="168" x="1" y="-14" fill="none" stroke="#000" stroke-width="3"/><text x="50" y="-24" class="fnt2" dy="-2" text-anchor="middle">REG</text></svg>