<svg xmlns="http://www.w3.org/2000/svg" xmlns:xlink="http://www.w3.org/1999/xlink" width="424" height="150" version="1.1" viewBox="-65 -50 424 150.5" xml:space="preserve"><style type="text/css">.fnt1,.fnt2{fill:#000;font-family:Helvetica;font-size:12pt;font-weight:400;font-style:normal}.fnt2{font-size:14pt;font-weight:700}</style><defs><marker id="clock" markerHeight="15" markerUnits="userSpaceOnUse" markerWidth="8" orient="auto" refX=".5" refY="7.5" viewBox="0 0 8 15"><g><path fill="#FFF" stroke="#000" stroke-width="1" d="M 0 -7 L 0 7 L 7 0 z" transform="translate(0.5,7.5)"/></g></marker></defs><rect width="100%" height="100%" x="-65" y="-50" fill="#fff"/><g transform="translate(0,0)"><rect width="260" height="110" x="0" y="-15" fill="#C5DBFC" stroke="#000" stroke-width="1"/><g transform="translate(0,0)"><line x1="-20" x2="0" y1="0" y2="0" fill="none" stroke="#000" stroke-width="1" marker-end="url(#clock)"/><text x="10" y="0" class="fnt1" dy="5.5" text-anchor="normal">clk</text><text x="-30" y="0" class="fnt1" dy="5.5" text-anchor="end" style="fill:#969696">wire</text></g><g transform="translate(0,20)"><line x1="-20" x2="0" y1="0" y2="0" fill="none" stroke="#000" stroke-width="1"/><text x="10" y="0" class="fnt1" dy="5.5" text-anchor="normal">RX</text><text x="-30" y="0" class="fnt1" dy="5.5" text-anchor="end" style="fill:#969696">wire</text></g><g transform="translate(0,40)"><line x1="-20" x2="0" y1="0" y2="0" fill="none" stroke="#000" stroke-width="1"/><text x="10" y="0" class="fnt1" dy="5.5" text-anchor="normal">sw1</text><text x="-30" y="0" class="fnt1" dy="5.5" text-anchor="end" style="fill:#969696">wire</text></g><g transform="translate(0,60)"><line x1="-20" x2="0" y1="0" y2="0" fill="none" stroke="#000" stroke-width="1"/><text x="10" y="0" class="fnt1" dy="5.5" text-anchor="normal">sw2</text><text x="-30" y="0" class="fnt1" dy="5.5" text-anchor="end" style="fill:#969696">wire</text></g><g transform="translate(0,80)"><line x1="-20" x2="0" y1="0" y2="0" fill="none" stroke="#000" stroke-width="1"/><text x="10" y="0" class="fnt1" dy="5.5" text-anchor="normal">endif</text><text x="-30" y="0" class="fnt1" dy="5.5" text-anchor="end" style="fill:#969696">wire</text></g><g transform="translate(260,0)"><line x1="20" x2="0" y1="0" y2="0" fill="none" stroke="#000" stroke-width="1"/><text x="-10" y="0" class="fnt1" dy="5.5" text-anchor="end">TX</text><text x="30" y="0" class="fnt1" dy="5.5" text-anchor="normal" style="fill:#969696">wire</text></g><g transform="translate(260,20)"><line x1="20" x2="0" y1="0" y2="0" fill="none" stroke="#000" stroke-width="1"/><text x="-10" y="0" class="fnt1" dy="5.5" text-anchor="end">ifdef</text><text x="30" y="0" class="fnt1" dy="5.5" text-anchor="normal" style="fill:#969696">wire</text></g><g transform="translate(260,40)"><line x1="20" x2="0" y1="0" y2="0" fill="none" stroke="#000" stroke-width="1"/><text x="-10" y="0" class="fnt1" dy="5.5" text-anchor="end">BOARD_HAVE_BUTTONS</text><text x="30" y="0" class="fnt1" dy="5.5" text-anchor="normal" style="fill:#969696">wire</text></g><g transform="translate(260,60)"><line x1="20" x2="0" y1="0" y2="0" fill="none" stroke="#000" stroke-width="3"/><text x="-10" y="0" class="fnt1" dy="5.5" text-anchor="end">leds</text><text x="30" y="0" class="fnt1" dy="5.5" text-anchor="normal" style="fill:#969696">wire <tspan fill="#039BE5">[7:0]</tspan></text></g></g><rect width="258" height="108" x="1" y="-14" fill="none" stroke="#000" stroke-width="3"/><text x="130" y="-24" class="fnt2" dy="-2" text-anchor="middle">top</text></svg>