<svg xmlns="http://www.w3.org/2000/svg" xmlns:xlink="http://www.w3.org/1999/xlink" width="323" height="110" version="1.1" viewBox="-65 -50 323 110.5" xml:space="preserve"><style type="text/css">.fnt1,.fnt2{fill:#000;font-family:Helvetica;font-size:12pt;font-weight:400;font-style:normal}.fnt2{font-size:14pt;font-weight:700}</style><defs><marker id="bubble" markerHeight="7" markerUnits="userSpaceOnUse" markerWidth="7" orient="auto" refX="3.5" refY="3.5" viewBox="0 0 7 7"><g transform="translate(3.5,3.5)"><ellipse cx="0" cy="0" fill="#FFF" stroke="#000" stroke-width="1" rx="3" ry="3"/></g></marker><marker id="clock" markerHeight="15" markerUnits="userSpaceOnUse" markerWidth="8" orient="auto" refX=".5" refY="7.5" viewBox="0 0 8 15"><g><path fill="#FFF" stroke="#000" stroke-width="1" d="M 0 -7 L 0 7 L 7 0 z" transform="translate(0.5,7.5)"/></g></marker></defs><rect width="100%" height="100%" x="-65" y="-50" fill="#fff"/><g transform="translate(0,0)"><rect width="200" height="70" x="0" y="-15" fill="#C5DBFC" stroke="#000" stroke-width="1"/><g transform="translate(0,0)"><line x1="-20" x2="0" y1="0" y2="0" fill="none" stroke="#000" stroke-width="1" marker-end="url(#clock)"/><text x="10" y="0" class="fnt1" dy="5.5" text-anchor="normal">clk</text><text x="-30" y="0" class="fnt1" dy="5.5" text-anchor="end" style="fill:#969696">wire</text></g><g transform="translate(0,20)"><line x1="-20" x2="-3.5" y1="0" y2="0" fill="none" stroke="#000" stroke-width="1" marker-end="url(#bubble)"/><text x="10" y="0" class="fnt1" dy="5.5" text-anchor="normal">i_empty_n</text><text x="-30" y="0" class="fnt1" dy="5.5" text-anchor="end" style="fill:#969696">wire</text></g><g transform="translate(0,40)"><line x1="-20" x2="-3.5" y1="0" y2="0" fill="none" stroke="#000" stroke-width="1" marker-end="url(#bubble)"/><text x="10" y="0" class="fnt1" dy="5.5" text-anchor="normal">i_busy_n</text><text x="-30" y="0" class="fnt1" dy="5.5" text-anchor="end" style="fill:#969696">wire</text></g><g transform="translate(200,0)"><line x1="20" x2="0" y1="0" y2="0" fill="none" stroke="#000" stroke-width="1"/><text x="-10" y="0" class="fnt1" dy="5.5" text-anchor="end">o_pop_value</text><text x="30" y="0" class="fnt1" dy="5.5" text-anchor="normal" style="fill:#969696">reg</text></g></g><rect width="198" height="68" x="1" y="-14" fill="none" stroke="#000" stroke-width="3"/><text x="100" y="-24" class="fnt2" dy="-2" text-anchor="middle">out2txCtl</text></svg>