<svg xmlns="http://www.w3.org/2000/svg" xmlns:svg="http://www.w3.org/2000/svg" xmlns:xlink="http://www.w3.org/1999/xlink" id="svg2" width="300" height="300" version="1.1"><metadata id="metadata4265"/><defs id="defs4"><linearGradient id="lg1"><stop id="s1" offset="0" style="stop-color:white;stop-opacity:0"/><stop id="s2" offset="1" style="stop-color:white"/></linearGradient><linearGradient id="lg3" x1="191" x2="148" y1="156" y2="10" gradientUnits="userSpaceOnUse" xlink:href="#lg1"/><linearGradient id="lg2"><stop style="stop-color:#ffd5d5;stop-opacity:1" id="s3" offset="0"/><stop style="stop-color:#ff8080;stop-opacity:1" id="s4" offset=".36"/><stop style="stop-color:#ff2a2a;stop-opacity:1" id="s5" offset=".79"/><stop style="stop-color:red;stop-opacity:1" id="s6" offset="1"/></linearGradient><radialGradient id="rg1" cx="-100" cy="-278" r="155" fx="-100" fy="-278" gradientTransform="matrix(1.2033371,0,0,1.6430727,270.01964,718.33792)" gradientUnits="userSpaceOnUse" xlink:href="#lg2"/><radialGradient id="rg1-3" cx="-100" cy="-278" r="155" fx="-100" fy="-278" gradientTransform="matrix(1.2033371,0,0,1.6430727,402.50546,655.21088)" gradientUnits="userSpaceOnUse" xlink:href="#lg1"/></defs><path id="p1" d="m 295.97639,150.27166 a 146.26196,146.26196 0 0 1 -292.523922,0 146.26196,146.26196 0 1 1 292.523922,0 z" style="fill:url(#rg1);stroke:#d40000;stroke-width:3.79901195;fill-opacity:1;opacity:.25"/><path id="p2" d="M 150,10 C 74,10 12,71 10,147 c 39,35 77,36 96,27 20,-9 36,-38 62,-45 26,-6 40,-5 81,12 23,9 20,-22 37,-25 C 271,55 216,10 150,10 Z" style="fill:url(#lg3)"/></svg>